G04 #@! TF.GenerationSoftware,KiCad,Pcbnew,(5.1.9)-1*
G04 #@! TF.CreationDate,2021-02-27T14:39:48+01:00*
G04 #@! TF.ProjectId,SteeringWheelInterface,53746565-7269-46e6-9757-6865656c496e,rev?*
G04 #@! TF.SameCoordinates,Original*
G04 #@! TF.FileFunction,Copper,L1,Top*
G04 #@! TF.FilePolarity,Positive*
%FSLAX46Y46*%
G04 Gerber Fmt 4.6, Leading zero omitted, Abs format (unit mm)*
G04 Created by KiCad (PCBNEW (5.1.9)-1) date 2021-02-27 14:39:48*
%MOMM*%
%LPD*%
G01*
G04 APERTURE LIST*
G04 #@! TA.AperFunction,SMDPad,CuDef*
%ADD10R,0.700000X0.450000*%
G04 #@! TD*
G04 #@! TA.AperFunction,SMDPad,CuDef*
%ADD11R,10.800000X9.400000*%
G04 #@! TD*
G04 #@! TA.AperFunction,SMDPad,CuDef*
%ADD12R,1.100000X4.600000*%
G04 #@! TD*
G04 #@! TA.AperFunction,ComponentPad*
%ADD13R,1.700000X1.700000*%
G04 #@! TD*
G04 #@! TA.AperFunction,ComponentPad*
%ADD14O,1.700000X1.700000*%
G04 #@! TD*
G04 #@! TA.AperFunction,ComponentPad*
%ADD15C,1.600000*%
G04 #@! TD*
G04 #@! TA.AperFunction,ComponentPad*
%ADD16R,1.600000X1.600000*%
G04 #@! TD*
G04 #@! TA.AperFunction,ComponentPad*
%ADD17O,1.600000X1.600000*%
G04 #@! TD*
G04 #@! TA.AperFunction,ViaPad*
%ADD18C,0.800000*%
G04 #@! TD*
G04 #@! TA.AperFunction,Conductor*
%ADD19C,0.500000*%
G04 #@! TD*
G04 #@! TA.AperFunction,Conductor*
%ADD20C,1.000000*%
G04 #@! TD*
G04 #@! TA.AperFunction,Conductor*
%ADD21C,0.250000*%
G04 #@! TD*
G04 #@! TA.AperFunction,Conductor*
%ADD22C,0.254000*%
G04 #@! TD*
G04 #@! TA.AperFunction,Conductor*
%ADD23C,0.100000*%
G04 #@! TD*
G04 APERTURE END LIST*
G04 #@! TA.AperFunction,SMDPad,CuDef*
G36*
G01*
X123053000Y-103582500D02*
X121803000Y-103582500D01*
G75*
G02*
X121553000Y-103332500I0J250000D01*
G01*
X121553000Y-102407500D01*
G75*
G02*
X121803000Y-102157500I250000J0D01*
G01*
X123053000Y-102157500D01*
G75*
G02*
X123303000Y-102407500I0J-250000D01*
G01*
X123303000Y-103332500D01*
G75*
G02*
X123053000Y-103582500I-250000J0D01*
G01*
G37*
G04 #@! TD.AperFunction*
G04 #@! TA.AperFunction,SMDPad,CuDef*
G36*
G01*
X123053000Y-106557500D02*
X121803000Y-106557500D01*
G75*
G02*
X121553000Y-106307500I0J250000D01*
G01*
X121553000Y-105382500D01*
G75*
G02*
X121803000Y-105132500I250000J0D01*
G01*
X123053000Y-105132500D01*
G75*
G02*
X123303000Y-105382500I0J-250000D01*
G01*
X123303000Y-106307500D01*
G75*
G02*
X123053000Y-106557500I-250000J0D01*
G01*
G37*
G04 #@! TD.AperFunction*
D10*
X124063000Y-108966000D03*
X122063000Y-109616000D03*
X122063000Y-108316000D03*
G04 #@! TA.AperFunction,SMDPad,CuDef*
G36*
G01*
X134330000Y-59918001D02*
X134330000Y-56667999D01*
G75*
G02*
X134579999Y-56418000I249999J0D01*
G01*
X135930001Y-56418000D01*
G75*
G02*
X136180000Y-56667999I0J-249999D01*
G01*
X136180000Y-59918001D01*
G75*
G02*
X135930001Y-60168000I-249999J0D01*
G01*
X134579999Y-60168000D01*
G75*
G02*
X134330000Y-59918001I0J249999D01*
G01*
G37*
G04 #@! TD.AperFunction*
G04 #@! TA.AperFunction,SMDPad,CuDef*
G36*
G01*
X129780000Y-59918001D02*
X129780000Y-56667999D01*
G75*
G02*
X130029999Y-56418000I249999J0D01*
G01*
X131380001Y-56418000D01*
G75*
G02*
X131630000Y-56667999I0J-249999D01*
G01*
X131630000Y-59918001D01*
G75*
G02*
X131380001Y-60168000I-249999J0D01*
G01*
X130029999Y-60168000D01*
G75*
G02*
X129780000Y-59918001I0J249999D01*
G01*
G37*
G04 #@! TD.AperFunction*
D11*
X123190000Y-57150000D03*
D12*
X126590000Y-66300000D03*
X124890000Y-66300000D03*
X123190000Y-66300000D03*
X121490000Y-66300000D03*
X119790000Y-66300000D03*
G04 #@! TA.AperFunction,SMDPad,CuDef*
G36*
G01*
X131367500Y-102225000D02*
X131367500Y-100975000D01*
G75*
G02*
X131617500Y-100725000I250000J0D01*
G01*
X132542500Y-100725000D01*
G75*
G02*
X132792500Y-100975000I0J-250000D01*
G01*
X132792500Y-102225000D01*
G75*
G02*
X132542500Y-102475000I-250000J0D01*
G01*
X131617500Y-102475000D01*
G75*
G02*
X131367500Y-102225000I0J250000D01*
G01*
G37*
G04 #@! TD.AperFunction*
G04 #@! TA.AperFunction,SMDPad,CuDef*
G36*
G01*
X128392500Y-102225000D02*
X128392500Y-100975000D01*
G75*
G02*
X128642500Y-100725000I250000J0D01*
G01*
X129567500Y-100725000D01*
G75*
G02*
X129817500Y-100975000I0J-250000D01*
G01*
X129817500Y-102225000D01*
G75*
G02*
X129567500Y-102475000I-250000J0D01*
G01*
X128642500Y-102475000D01*
G75*
G02*
X128392500Y-102225000I0J250000D01*
G01*
G37*
G04 #@! TD.AperFunction*
G04 #@! TA.AperFunction,SMDPad,CuDef*
G36*
G01*
X131367500Y-99685000D02*
X131367500Y-98435000D01*
G75*
G02*
X131617500Y-98185000I250000J0D01*
G01*
X132542500Y-98185000D01*
G75*
G02*
X132792500Y-98435000I0J-250000D01*
G01*
X132792500Y-99685000D01*
G75*
G02*
X132542500Y-99935000I-250000J0D01*
G01*
X131617500Y-99935000D01*
G75*
G02*
X131367500Y-99685000I0J250000D01*
G01*
G37*
G04 #@! TD.AperFunction*
G04 #@! TA.AperFunction,SMDPad,CuDef*
G36*
G01*
X128392500Y-99685000D02*
X128392500Y-98435000D01*
G75*
G02*
X128642500Y-98185000I250000J0D01*
G01*
X129567500Y-98185000D01*
G75*
G02*
X129817500Y-98435000I0J-250000D01*
G01*
X129817500Y-99685000D01*
G75*
G02*
X129567500Y-99935000I-250000J0D01*
G01*
X128642500Y-99935000D01*
G75*
G02*
X128392500Y-99685000I0J250000D01*
G01*
G37*
G04 #@! TD.AperFunction*
D13*
X138049000Y-107569000D03*
D14*
X138049000Y-96520000D03*
X138049000Y-99060000D03*
D13*
X138049000Y-101600000D03*
D14*
X131318000Y-53975000D03*
D13*
X133858000Y-53975000D03*
G04 #@! TA.AperFunction,SMDPad,CuDef*
G36*
G01*
X131328000Y-106348500D02*
X132578000Y-106348500D01*
G75*
G02*
X132828000Y-106598500I0J-250000D01*
G01*
X132828000Y-107523500D01*
G75*
G02*
X132578000Y-107773500I-250000J0D01*
G01*
X131328000Y-107773500D01*
G75*
G02*
X131078000Y-107523500I0J250000D01*
G01*
X131078000Y-106598500D01*
G75*
G02*
X131328000Y-106348500I250000J0D01*
G01*
G37*
G04 #@! TD.AperFunction*
G04 #@! TA.AperFunction,SMDPad,CuDef*
G36*
G01*
X131328000Y-103373500D02*
X132578000Y-103373500D01*
G75*
G02*
X132828000Y-103623500I0J-250000D01*
G01*
X132828000Y-104548500D01*
G75*
G02*
X132578000Y-104798500I-250000J0D01*
G01*
X131328000Y-104798500D01*
G75*
G02*
X131078000Y-104548500I0J250000D01*
G01*
X131078000Y-103623500D01*
G75*
G02*
X131328000Y-103373500I250000J0D01*
G01*
G37*
G04 #@! TD.AperFunction*
G04 #@! TA.AperFunction,SMDPad,CuDef*
G36*
G01*
X124600000Y-71491000D02*
X124600000Y-70241000D01*
G75*
G02*
X124850000Y-69991000I250000J0D01*
G01*
X125775000Y-69991000D01*
G75*
G02*
X126025000Y-70241000I0J-250000D01*
G01*
X126025000Y-71491000D01*
G75*
G02*
X125775000Y-71741000I-250000J0D01*
G01*
X124850000Y-71741000D01*
G75*
G02*
X124600000Y-71491000I0J250000D01*
G01*
G37*
G04 #@! TD.AperFunction*
G04 #@! TA.AperFunction,SMDPad,CuDef*
G36*
G01*
X121625000Y-71491000D02*
X121625000Y-70241000D01*
G75*
G02*
X121875000Y-69991000I250000J0D01*
G01*
X122800000Y-69991000D01*
G75*
G02*
X123050000Y-70241000I0J-250000D01*
G01*
X123050000Y-71491000D01*
G75*
G02*
X122800000Y-71741000I-250000J0D01*
G01*
X121875000Y-71741000D01*
G75*
G02*
X121625000Y-71491000I0J250000D01*
G01*
G37*
G04 #@! TD.AperFunction*
D15*
X135880000Y-64897000D03*
D16*
X132080000Y-64897000D03*
G04 #@! TA.AperFunction,SMDPad,CuDef*
G36*
G01*
X130947000Y-75832000D02*
X132197000Y-75832000D01*
G75*
G02*
X132447000Y-76082000I0J-250000D01*
G01*
X132447000Y-77007000D01*
G75*
G02*
X132197000Y-77257000I-250000J0D01*
G01*
X130947000Y-77257000D01*
G75*
G02*
X130697000Y-77007000I0J250000D01*
G01*
X130697000Y-76082000D01*
G75*
G02*
X130947000Y-75832000I250000J0D01*
G01*
G37*
G04 #@! TD.AperFunction*
G04 #@! TA.AperFunction,SMDPad,CuDef*
G36*
G01*
X130947000Y-72857000D02*
X132197000Y-72857000D01*
G75*
G02*
X132447000Y-73107000I0J-250000D01*
G01*
X132447000Y-74032000D01*
G75*
G02*
X132197000Y-74282000I-250000J0D01*
G01*
X130947000Y-74282000D01*
G75*
G02*
X130697000Y-74032000I0J250000D01*
G01*
X130697000Y-73107000D01*
G75*
G02*
X130947000Y-72857000I250000J0D01*
G01*
G37*
G04 #@! TD.AperFunction*
D17*
X134620000Y-109220000D03*
X119380000Y-109220000D03*
X134620000Y-73660000D03*
X119380000Y-106680000D03*
X134620000Y-76200000D03*
X119380000Y-104140000D03*
X134620000Y-78740000D03*
X119380000Y-101600000D03*
X134620000Y-81280000D03*
X119380000Y-99060000D03*
X134620000Y-83820000D03*
X119380000Y-96520000D03*
X134620000Y-86360000D03*
X119380000Y-93980000D03*
X134620000Y-88900000D03*
X119380000Y-91440000D03*
X134620000Y-91440000D03*
X119380000Y-88900000D03*
X134620000Y-93980000D03*
X119380000Y-86360000D03*
X134620000Y-96520000D03*
X119380000Y-83820000D03*
X134620000Y-99060000D03*
X119380000Y-81280000D03*
X134620000Y-101600000D03*
X119380000Y-78740000D03*
X134620000Y-104140000D03*
X119380000Y-76200000D03*
X134620000Y-106680000D03*
D16*
X119380000Y-73660000D03*
D18*
X128016000Y-60452000D03*
X128016000Y-59563000D03*
X128016000Y-58547000D03*
X128016000Y-57658000D03*
X128016000Y-56769000D03*
X128016000Y-55880000D03*
X128016000Y-54991000D03*
X128016000Y-53975000D03*
X118364000Y-60071000D03*
X118364000Y-59055000D03*
X118364000Y-58039000D03*
X118364000Y-57023000D03*
X118364000Y-56007000D03*
X118364000Y-54991000D03*
X118364000Y-53975000D03*
X128016000Y-61341000D03*
X118364000Y-61341000D03*
X128016000Y-52959000D03*
X118364000Y-52959000D03*
D19*
X129105000Y-99060000D02*
X129105000Y-101600000D01*
X132007000Y-104140000D02*
X131953000Y-104086000D01*
X134620000Y-104140000D02*
X132007000Y-104140000D01*
X129105000Y-101600000D02*
X129105000Y-103070000D01*
X130121000Y-104086000D02*
X131953000Y-104086000D01*
X129105000Y-103070000D02*
X130121000Y-104086000D01*
D20*
X131662500Y-73660000D02*
X131572000Y-73569500D01*
X134620000Y-73660000D02*
X131662500Y-73660000D01*
X119790000Y-66300000D02*
X119790000Y-70895000D01*
X119790000Y-70895000D02*
X122464500Y-73569500D01*
D19*
X129105000Y-73733000D02*
X128941500Y-73569500D01*
X129105000Y-99060000D02*
X129105000Y-73733000D01*
D20*
X128941500Y-73569500D02*
X131572000Y-73569500D01*
X122464500Y-73569500D02*
X128941500Y-73569500D01*
D21*
X122428000Y-102870000D02*
X122428000Y-100330000D01*
X121158000Y-99060000D02*
X119380000Y-99060000D01*
X122428000Y-100330000D02*
X121158000Y-99060000D01*
D20*
X130705000Y-63522000D02*
X132080000Y-64897000D01*
X130705000Y-58293000D02*
X130705000Y-63522000D01*
X130677000Y-66300000D02*
X132080000Y-64897000D01*
X126590000Y-66300000D02*
X130677000Y-66300000D01*
D19*
X126590000Y-66300000D02*
X124890000Y-66300000D01*
X121490000Y-70018500D02*
X122337500Y-70866000D01*
X121490000Y-66300000D02*
X121490000Y-70018500D01*
D20*
X135255000Y-55372000D02*
X133858000Y-53975000D01*
X135255000Y-58293000D02*
X135255000Y-55372000D01*
D19*
X134620000Y-99060000D02*
X132080000Y-99060000D01*
X138049000Y-99060000D02*
X134620000Y-99060000D01*
X134620000Y-101600000D02*
X132080000Y-101600000D01*
X138049000Y-101600000D02*
X134620000Y-101600000D01*
D21*
X138049000Y-107569000D02*
X138049000Y-109474000D01*
X138049000Y-109474000D02*
X136271000Y-111252000D01*
X124063000Y-108966000D02*
X124063000Y-109712000D01*
X124063000Y-109712000D02*
X125603000Y-111252000D01*
X125603000Y-111252000D02*
X136271000Y-111252000D01*
X122063000Y-106210000D02*
X122428000Y-105845000D01*
X122063000Y-108316000D02*
X122063000Y-106210000D01*
D22*
X139040001Y-95423655D02*
X138930355Y-95324822D01*
X138680252Y-95175843D01*
X138405891Y-95078519D01*
X138176000Y-95199186D01*
X138176000Y-96393000D01*
X138196000Y-96393000D01*
X138196000Y-96647000D01*
X138176000Y-96647000D01*
X138176000Y-96667000D01*
X137922000Y-96667000D01*
X137922000Y-96647000D01*
X136728845Y-96647000D01*
X136607524Y-96876890D01*
X136652175Y-97024099D01*
X136777359Y-97286920D01*
X136951412Y-97520269D01*
X137167645Y-97715178D01*
X137284534Y-97784805D01*
X137102368Y-97906525D01*
X136895525Y-98113368D01*
X136854344Y-98175000D01*
X135754521Y-98175000D01*
X135734637Y-98145241D01*
X135534759Y-97945363D01*
X135302241Y-97790000D01*
X135534759Y-97634637D01*
X135734637Y-97434759D01*
X135891680Y-97199727D01*
X135999853Y-96938574D01*
X136055000Y-96661335D01*
X136055000Y-96378665D01*
X136012123Y-96163110D01*
X136607524Y-96163110D01*
X136728845Y-96393000D01*
X137922000Y-96393000D01*
X137922000Y-95199186D01*
X137692109Y-95078519D01*
X137417748Y-95175843D01*
X137167645Y-95324822D01*
X136951412Y-95519731D01*
X136777359Y-95753080D01*
X136652175Y-96015901D01*
X136607524Y-96163110D01*
X136012123Y-96163110D01*
X135999853Y-96101426D01*
X135891680Y-95840273D01*
X135734637Y-95605241D01*
X135534759Y-95405363D01*
X135302241Y-95250000D01*
X135534759Y-95094637D01*
X135734637Y-94894759D01*
X135891680Y-94659727D01*
X135999853Y-94398574D01*
X136055000Y-94121335D01*
X136055000Y-93838665D01*
X135999853Y-93561426D01*
X135891680Y-93300273D01*
X135734637Y-93065241D01*
X135534759Y-92865363D01*
X135302241Y-92710000D01*
X135534759Y-92554637D01*
X135734637Y-92354759D01*
X135891680Y-92119727D01*
X135999853Y-91858574D01*
X136055000Y-91581335D01*
X136055000Y-91298665D01*
X135999853Y-91021426D01*
X135891680Y-90760273D01*
X135734637Y-90525241D01*
X135534759Y-90325363D01*
X135302241Y-90170000D01*
X135534759Y-90014637D01*
X135734637Y-89814759D01*
X135891680Y-89579727D01*
X135999853Y-89318574D01*
X136055000Y-89041335D01*
X136055000Y-88758665D01*
X135999853Y-88481426D01*
X135891680Y-88220273D01*
X135734637Y-87985241D01*
X135534759Y-87785363D01*
X135302241Y-87630000D01*
X135534759Y-87474637D01*
X135734637Y-87274759D01*
X135891680Y-87039727D01*
X135999853Y-86778574D01*
X136055000Y-86501335D01*
X136055000Y-86218665D01*
X135999853Y-85941426D01*
X135891680Y-85680273D01*
X135734637Y-85445241D01*
X135534759Y-85245363D01*
X135302241Y-85090000D01*
X135534759Y-84934637D01*
X135734637Y-84734759D01*
X135891680Y-84499727D01*
X135999853Y-84238574D01*
X136055000Y-83961335D01*
X136055000Y-83678665D01*
X135999853Y-83401426D01*
X135891680Y-83140273D01*
X135734637Y-82905241D01*
X135534759Y-82705363D01*
X135302241Y-82550000D01*
X135534759Y-82394637D01*
X135734637Y-82194759D01*
X135891680Y-81959727D01*
X135999853Y-81698574D01*
X136055000Y-81421335D01*
X136055000Y-81138665D01*
X135999853Y-80861426D01*
X135891680Y-80600273D01*
X135734637Y-80365241D01*
X135534759Y-80165363D01*
X135302241Y-80010000D01*
X135534759Y-79854637D01*
X135734637Y-79654759D01*
X135891680Y-79419727D01*
X135999853Y-79158574D01*
X136055000Y-78881335D01*
X136055000Y-78598665D01*
X135999853Y-78321426D01*
X135891680Y-78060273D01*
X135734637Y-77825241D01*
X135534759Y-77625363D01*
X135299727Y-77468320D01*
X135289135Y-77463933D01*
X135475131Y-77352385D01*
X135683519Y-77163414D01*
X135851037Y-76937420D01*
X135971246Y-76683087D01*
X136011904Y-76549039D01*
X135889915Y-76327000D01*
X134747000Y-76327000D01*
X134747000Y-76347000D01*
X134493000Y-76347000D01*
X134493000Y-76327000D01*
X133350085Y-76327000D01*
X133228096Y-76549039D01*
X133268754Y-76683087D01*
X133388963Y-76937420D01*
X133556481Y-77163414D01*
X133764869Y-77352385D01*
X133950865Y-77463933D01*
X133940273Y-77468320D01*
X133705241Y-77625363D01*
X133505363Y-77825241D01*
X133348320Y-78060273D01*
X133240147Y-78321426D01*
X133185000Y-78598665D01*
X133185000Y-78881335D01*
X133240147Y-79158574D01*
X133348320Y-79419727D01*
X133505363Y-79654759D01*
X133705241Y-79854637D01*
X133937759Y-80010000D01*
X133705241Y-80165363D01*
X133505363Y-80365241D01*
X133348320Y-80600273D01*
X133240147Y-80861426D01*
X133185000Y-81138665D01*
X133185000Y-81421335D01*
X133240147Y-81698574D01*
X133348320Y-81959727D01*
X133505363Y-82194759D01*
X133705241Y-82394637D01*
X133937759Y-82550000D01*
X133705241Y-82705363D01*
X133505363Y-82905241D01*
X133348320Y-83140273D01*
X133240147Y-83401426D01*
X133185000Y-83678665D01*
X133185000Y-83961335D01*
X133240147Y-84238574D01*
X133348320Y-84499727D01*
X133505363Y-84734759D01*
X133705241Y-84934637D01*
X133937759Y-85090000D01*
X133705241Y-85245363D01*
X133505363Y-85445241D01*
X133348320Y-85680273D01*
X133240147Y-85941426D01*
X133185000Y-86218665D01*
X133185000Y-86501335D01*
X133240147Y-86778574D01*
X133348320Y-87039727D01*
X133505363Y-87274759D01*
X133705241Y-87474637D01*
X133937759Y-87630000D01*
X133705241Y-87785363D01*
X133505363Y-87985241D01*
X133348320Y-88220273D01*
X133240147Y-88481426D01*
X133185000Y-88758665D01*
X133185000Y-89041335D01*
X133240147Y-89318574D01*
X133348320Y-89579727D01*
X133505363Y-89814759D01*
X133705241Y-90014637D01*
X133937759Y-90170000D01*
X133705241Y-90325363D01*
X133505363Y-90525241D01*
X133348320Y-90760273D01*
X133240147Y-91021426D01*
X133185000Y-91298665D01*
X133185000Y-91581335D01*
X133240147Y-91858574D01*
X133348320Y-92119727D01*
X133505363Y-92354759D01*
X133705241Y-92554637D01*
X133937759Y-92710000D01*
X133705241Y-92865363D01*
X133505363Y-93065241D01*
X133348320Y-93300273D01*
X133240147Y-93561426D01*
X133185000Y-93838665D01*
X133185000Y-94121335D01*
X133240147Y-94398574D01*
X133348320Y-94659727D01*
X133505363Y-94894759D01*
X133705241Y-95094637D01*
X133937759Y-95250000D01*
X133705241Y-95405363D01*
X133505363Y-95605241D01*
X133348320Y-95840273D01*
X133240147Y-96101426D01*
X133185000Y-96378665D01*
X133185000Y-96661335D01*
X133240147Y-96938574D01*
X133348320Y-97199727D01*
X133505363Y-97434759D01*
X133705241Y-97634637D01*
X133937759Y-97790000D01*
X133705241Y-97945363D01*
X133505363Y-98145241D01*
X133485479Y-98175000D01*
X133387194Y-98175000D01*
X133362972Y-98095150D01*
X133280905Y-97941614D01*
X133170462Y-97807038D01*
X133035886Y-97696595D01*
X132882350Y-97614528D01*
X132715754Y-97563992D01*
X132542500Y-97546928D01*
X131617500Y-97546928D01*
X131444246Y-97563992D01*
X131277650Y-97614528D01*
X131124114Y-97696595D01*
X130989538Y-97807038D01*
X130879095Y-97941614D01*
X130797028Y-98095150D01*
X130746492Y-98261746D01*
X130729428Y-98435000D01*
X130729428Y-99685000D01*
X130746492Y-99858254D01*
X130797028Y-100024850D01*
X130879095Y-100178386D01*
X130989538Y-100312962D01*
X131010299Y-100330000D01*
X130989538Y-100347038D01*
X130879095Y-100481614D01*
X130797028Y-100635150D01*
X130746492Y-100801746D01*
X130729428Y-100975000D01*
X130729428Y-102225000D01*
X130746492Y-102398254D01*
X130797028Y-102564850D01*
X130879095Y-102718386D01*
X130960630Y-102817738D01*
X130834614Y-102885095D01*
X130700038Y-102995538D01*
X130589595Y-103130114D01*
X130551706Y-103201000D01*
X130487579Y-103201000D01*
X130164747Y-102878169D01*
X130195462Y-102852962D01*
X130305905Y-102718386D01*
X130387972Y-102564850D01*
X130438508Y-102398254D01*
X130455572Y-102225000D01*
X130455572Y-100975000D01*
X130438508Y-100801746D01*
X130387972Y-100635150D01*
X130305905Y-100481614D01*
X130195462Y-100347038D01*
X130174701Y-100330000D01*
X130195462Y-100312962D01*
X130305905Y-100178386D01*
X130387972Y-100024850D01*
X130438508Y-99858254D01*
X130455572Y-99685000D01*
X130455572Y-98435000D01*
X130438508Y-98261746D01*
X130387972Y-98095150D01*
X130305905Y-97941614D01*
X130195462Y-97807038D01*
X130060886Y-97696595D01*
X129990000Y-97658706D01*
X129990000Y-77257000D01*
X130058928Y-77257000D01*
X130071188Y-77381482D01*
X130107498Y-77501180D01*
X130166463Y-77611494D01*
X130245815Y-77708185D01*
X130342506Y-77787537D01*
X130452820Y-77846502D01*
X130572518Y-77882812D01*
X130697000Y-77895072D01*
X131286250Y-77892000D01*
X131445000Y-77733250D01*
X131445000Y-76671500D01*
X131699000Y-76671500D01*
X131699000Y-77733250D01*
X131857750Y-77892000D01*
X132447000Y-77895072D01*
X132571482Y-77882812D01*
X132691180Y-77846502D01*
X132801494Y-77787537D01*
X132898185Y-77708185D01*
X132977537Y-77611494D01*
X133036502Y-77501180D01*
X133072812Y-77381482D01*
X133085072Y-77257000D01*
X133082000Y-76830250D01*
X132923250Y-76671500D01*
X131699000Y-76671500D01*
X131445000Y-76671500D01*
X130220750Y-76671500D01*
X130062000Y-76830250D01*
X130058928Y-77257000D01*
X129990000Y-77257000D01*
X129990000Y-75832000D01*
X130058928Y-75832000D01*
X130062000Y-76258750D01*
X130220750Y-76417500D01*
X131445000Y-76417500D01*
X131445000Y-75355750D01*
X131699000Y-75355750D01*
X131699000Y-76417500D01*
X132923250Y-76417500D01*
X133082000Y-76258750D01*
X133085072Y-75832000D01*
X133072812Y-75707518D01*
X133036502Y-75587820D01*
X132977537Y-75477506D01*
X132898185Y-75380815D01*
X132801494Y-75301463D01*
X132691180Y-75242498D01*
X132571482Y-75206188D01*
X132447000Y-75193928D01*
X131857750Y-75197000D01*
X131699000Y-75355750D01*
X131445000Y-75355750D01*
X131286250Y-75197000D01*
X130697000Y-75193928D01*
X130572518Y-75206188D01*
X130452820Y-75242498D01*
X130342506Y-75301463D01*
X130245815Y-75380815D01*
X130166463Y-75477506D01*
X130107498Y-75587820D01*
X130071188Y-75707518D01*
X130058928Y-75832000D01*
X129990000Y-75832000D01*
X129990000Y-74704500D01*
X130373308Y-74704500D01*
X130453614Y-74770405D01*
X130607150Y-74852472D01*
X130773746Y-74903008D01*
X130947000Y-74920072D01*
X132197000Y-74920072D01*
X132370254Y-74903008D01*
X132536850Y-74852472D01*
X132644372Y-74795000D01*
X133735716Y-74795000D01*
X133940273Y-74931680D01*
X133950865Y-74936067D01*
X133764869Y-75047615D01*
X133556481Y-75236586D01*
X133388963Y-75462580D01*
X133268754Y-75716913D01*
X133228096Y-75850961D01*
X133350085Y-76073000D01*
X134493000Y-76073000D01*
X134493000Y-76053000D01*
X134747000Y-76053000D01*
X134747000Y-76073000D01*
X135889915Y-76073000D01*
X136011904Y-75850961D01*
X135971246Y-75716913D01*
X135851037Y-75462580D01*
X135683519Y-75236586D01*
X135475131Y-75047615D01*
X135289135Y-74936067D01*
X135299727Y-74931680D01*
X135534759Y-74774637D01*
X135734637Y-74574759D01*
X135891680Y-74339727D01*
X135999853Y-74078574D01*
X136055000Y-73801335D01*
X136055000Y-73518665D01*
X135999853Y-73241426D01*
X135891680Y-72980273D01*
X135734637Y-72745241D01*
X135534759Y-72545363D01*
X135299727Y-72388320D01*
X135038574Y-72280147D01*
X134761335Y-72225000D01*
X134478665Y-72225000D01*
X134201426Y-72280147D01*
X133940273Y-72388320D01*
X133735716Y-72525000D01*
X132862682Y-72525000D01*
X132824962Y-72479038D01*
X132690386Y-72368595D01*
X132536850Y-72286528D01*
X132370254Y-72235992D01*
X132197000Y-72218928D01*
X130947000Y-72218928D01*
X130773746Y-72235992D01*
X130607150Y-72286528D01*
X130453614Y-72368595D01*
X130373308Y-72434500D01*
X122934632Y-72434500D01*
X122872102Y-72371971D01*
X122973254Y-72362008D01*
X123139850Y-72311472D01*
X123293386Y-72229405D01*
X123427962Y-72118962D01*
X123538405Y-71984386D01*
X123620472Y-71830850D01*
X123647727Y-71741000D01*
X123961928Y-71741000D01*
X123974188Y-71865482D01*
X124010498Y-71985180D01*
X124069463Y-72095494D01*
X124148815Y-72192185D01*
X124245506Y-72271537D01*
X124355820Y-72330502D01*
X124475518Y-72366812D01*
X124600000Y-72379072D01*
X125026750Y-72376000D01*
X125185500Y-72217250D01*
X125185500Y-70993000D01*
X125439500Y-70993000D01*
X125439500Y-72217250D01*
X125598250Y-72376000D01*
X126025000Y-72379072D01*
X126149482Y-72366812D01*
X126269180Y-72330502D01*
X126379494Y-72271537D01*
X126476185Y-72192185D01*
X126555537Y-72095494D01*
X126614502Y-71985180D01*
X126650812Y-71865482D01*
X126663072Y-71741000D01*
X126660000Y-71151750D01*
X126501250Y-70993000D01*
X125439500Y-70993000D01*
X125185500Y-70993000D01*
X124123750Y-70993000D01*
X123965000Y-71151750D01*
X123961928Y-71741000D01*
X123647727Y-71741000D01*
X123671008Y-71664254D01*
X123688072Y-71491000D01*
X123688072Y-70241000D01*
X123671008Y-70067746D01*
X123647728Y-69991000D01*
X123961928Y-69991000D01*
X123965000Y-70580250D01*
X124123750Y-70739000D01*
X125185500Y-70739000D01*
X125185500Y-69514750D01*
X125439500Y-69514750D01*
X125439500Y-70739000D01*
X126501250Y-70739000D01*
X126660000Y-70580250D01*
X126663072Y-69991000D01*
X126650812Y-69866518D01*
X126614502Y-69746820D01*
X126555537Y-69636506D01*
X126476185Y-69539815D01*
X126379494Y-69460463D01*
X126269180Y-69401498D01*
X126149482Y-69365188D01*
X126025000Y-69352928D01*
X125598250Y-69356000D01*
X125439500Y-69514750D01*
X125185500Y-69514750D01*
X125026750Y-69356000D01*
X124600000Y-69352928D01*
X124475518Y-69365188D01*
X124355820Y-69401498D01*
X124245506Y-69460463D01*
X124148815Y-69539815D01*
X124069463Y-69636506D01*
X124010498Y-69746820D01*
X123974188Y-69866518D01*
X123961928Y-69991000D01*
X123647728Y-69991000D01*
X123620472Y-69901150D01*
X123538405Y-69747614D01*
X123427962Y-69613038D01*
X123293386Y-69502595D01*
X123139850Y-69420528D01*
X122973254Y-69369992D01*
X122800000Y-69352928D01*
X122375000Y-69352928D01*
X122375000Y-69178373D01*
X122395820Y-69189502D01*
X122515518Y-69225812D01*
X122640000Y-69238072D01*
X122904250Y-69235000D01*
X123063000Y-69076250D01*
X123063000Y-66427000D01*
X123043000Y-66427000D01*
X123043000Y-66173000D01*
X123063000Y-66173000D01*
X123063000Y-63523750D01*
X122904250Y-63365000D01*
X122640000Y-63361928D01*
X122515518Y-63374188D01*
X122395820Y-63410498D01*
X122340000Y-63440335D01*
X122284180Y-63410498D01*
X122164482Y-63374188D01*
X122040000Y-63361928D01*
X120940000Y-63361928D01*
X120815518Y-63374188D01*
X120695820Y-63410498D01*
X120640000Y-63440335D01*
X120584180Y-63410498D01*
X120464482Y-63374188D01*
X120340000Y-63361928D01*
X119240000Y-63361928D01*
X119115518Y-63374188D01*
X118995820Y-63410498D01*
X118885506Y-63469463D01*
X118788815Y-63548815D01*
X118709463Y-63645506D01*
X118650498Y-63755820D01*
X118614188Y-63875518D01*
X118601928Y-64000000D01*
X118601928Y-68600000D01*
X118614188Y-68724482D01*
X118650498Y-68844180D01*
X118655001Y-68852604D01*
X118655001Y-70839239D01*
X118649509Y-70895000D01*
X118671423Y-71117498D01*
X118736324Y-71331446D01*
X118736325Y-71331447D01*
X118841717Y-71528623D01*
X118983552Y-71701449D01*
X119026860Y-71736991D01*
X119511797Y-72221928D01*
X118580000Y-72221928D01*
X118455518Y-72234188D01*
X118335820Y-72270498D01*
X118225506Y-72329463D01*
X118128815Y-72408815D01*
X118049463Y-72505506D01*
X117990498Y-72615820D01*
X117954188Y-72735518D01*
X117941928Y-72860000D01*
X117941928Y-74460000D01*
X117954188Y-74584482D01*
X117990498Y-74704180D01*
X118049463Y-74814494D01*
X118128815Y-74911185D01*
X118225506Y-74990537D01*
X118335820Y-75049502D01*
X118455518Y-75085812D01*
X118463961Y-75086643D01*
X118265363Y-75285241D01*
X118108320Y-75520273D01*
X118000147Y-75781426D01*
X117945000Y-76058665D01*
X117945000Y-76341335D01*
X118000147Y-76618574D01*
X118108320Y-76879727D01*
X118265363Y-77114759D01*
X118465241Y-77314637D01*
X118697759Y-77470000D01*
X118465241Y-77625363D01*
X118265363Y-77825241D01*
X118108320Y-78060273D01*
X118000147Y-78321426D01*
X117945000Y-78598665D01*
X117945000Y-78881335D01*
X118000147Y-79158574D01*
X118108320Y-79419727D01*
X118265363Y-79654759D01*
X118465241Y-79854637D01*
X118700273Y-80011680D01*
X118710865Y-80016067D01*
X118524869Y-80127615D01*
X118316481Y-80316586D01*
X118148963Y-80542580D01*
X118028754Y-80796913D01*
X117988096Y-80930961D01*
X118110085Y-81153000D01*
X119253000Y-81153000D01*
X119253000Y-81133000D01*
X119507000Y-81133000D01*
X119507000Y-81153000D01*
X120649915Y-81153000D01*
X120771904Y-80930961D01*
X120731246Y-80796913D01*
X120611037Y-80542580D01*
X120443519Y-80316586D01*
X120235131Y-80127615D01*
X120049135Y-80016067D01*
X120059727Y-80011680D01*
X120294759Y-79854637D01*
X120494637Y-79654759D01*
X120651680Y-79419727D01*
X120759853Y-79158574D01*
X120815000Y-78881335D01*
X120815000Y-78598665D01*
X120759853Y-78321426D01*
X120651680Y-78060273D01*
X120494637Y-77825241D01*
X120294759Y-77625363D01*
X120062241Y-77470000D01*
X120294759Y-77314637D01*
X120494637Y-77114759D01*
X120651680Y-76879727D01*
X120759853Y-76618574D01*
X120815000Y-76341335D01*
X120815000Y-76058665D01*
X120759853Y-75781426D01*
X120651680Y-75520273D01*
X120494637Y-75285241D01*
X120296039Y-75086643D01*
X120304482Y-75085812D01*
X120424180Y-75049502D01*
X120534494Y-74990537D01*
X120631185Y-74911185D01*
X120710537Y-74814494D01*
X120769502Y-74704180D01*
X120805812Y-74584482D01*
X120818072Y-74460000D01*
X120818072Y-73528204D01*
X121622509Y-74332641D01*
X121658051Y-74375949D01*
X121830877Y-74517784D01*
X122028053Y-74623176D01*
X122192205Y-74672971D01*
X122242000Y-74688077D01*
X122262993Y-74690144D01*
X122408748Y-74704500D01*
X122408755Y-74704500D01*
X122464499Y-74709990D01*
X122520243Y-74704500D01*
X128220001Y-74704500D01*
X128220000Y-97658705D01*
X128149114Y-97696595D01*
X128014538Y-97807038D01*
X127904095Y-97941614D01*
X127822028Y-98095150D01*
X127771492Y-98261746D01*
X127754428Y-98435000D01*
X127754428Y-99685000D01*
X127771492Y-99858254D01*
X127822028Y-100024850D01*
X127904095Y-100178386D01*
X128014538Y-100312962D01*
X128035299Y-100330000D01*
X128014538Y-100347038D01*
X127904095Y-100481614D01*
X127822028Y-100635150D01*
X127771492Y-100801746D01*
X127754428Y-100975000D01*
X127754428Y-102225000D01*
X127771492Y-102398254D01*
X127822028Y-102564850D01*
X127904095Y-102718386D01*
X128014538Y-102852962D01*
X128149114Y-102963405D01*
X128220001Y-103001295D01*
X128220001Y-103026521D01*
X128215719Y-103070000D01*
X128232805Y-103243490D01*
X128283412Y-103410313D01*
X128365590Y-103564059D01*
X128448468Y-103665046D01*
X128448471Y-103665049D01*
X128476184Y-103698817D01*
X128509951Y-103726529D01*
X129464470Y-104681049D01*
X129492183Y-104714817D01*
X129525951Y-104742530D01*
X129525953Y-104742532D01*
X129591752Y-104796532D01*
X129626941Y-104825411D01*
X129780687Y-104907589D01*
X129896903Y-104942843D01*
X129947509Y-104958195D01*
X129962306Y-104959652D01*
X130077523Y-104971000D01*
X130077531Y-104971000D01*
X130121000Y-104975281D01*
X130164469Y-104971000D01*
X130551706Y-104971000D01*
X130589595Y-105041886D01*
X130700038Y-105176462D01*
X130834614Y-105286905D01*
X130988150Y-105368972D01*
X131154746Y-105419508D01*
X131328000Y-105436572D01*
X132578000Y-105436572D01*
X132751254Y-105419508D01*
X132917850Y-105368972D01*
X133071386Y-105286905D01*
X133205962Y-105176462D01*
X133316405Y-105041886D01*
X133325431Y-105025000D01*
X133485479Y-105025000D01*
X133505363Y-105054759D01*
X133705241Y-105254637D01*
X133937759Y-105410000D01*
X133705241Y-105565363D01*
X133505363Y-105765241D01*
X133355213Y-105989956D01*
X133279185Y-105897315D01*
X133182494Y-105817963D01*
X133072180Y-105758998D01*
X132952482Y-105722688D01*
X132828000Y-105710428D01*
X132238750Y-105713500D01*
X132080000Y-105872250D01*
X132080000Y-106934000D01*
X132100000Y-106934000D01*
X132100000Y-107188000D01*
X132080000Y-107188000D01*
X132080000Y-108249750D01*
X132238750Y-108408500D01*
X132828000Y-108411572D01*
X132952482Y-108399312D01*
X133072180Y-108363002D01*
X133182494Y-108304037D01*
X133279185Y-108224685D01*
X133358537Y-108127994D01*
X133417502Y-108017680D01*
X133453812Y-107897982D01*
X133466072Y-107773500D01*
X133464343Y-107533369D01*
X133505363Y-107594759D01*
X133705241Y-107794637D01*
X133937759Y-107950000D01*
X133705241Y-108105363D01*
X133505363Y-108305241D01*
X133348320Y-108540273D01*
X133240147Y-108801426D01*
X133185000Y-109078665D01*
X133185000Y-109361335D01*
X133240147Y-109638574D01*
X133348320Y-109899727D01*
X133505363Y-110134759D01*
X133705241Y-110334637D01*
X133940273Y-110491680D01*
X133941046Y-110492000D01*
X125917802Y-110492000D01*
X124953206Y-109527405D01*
X125002502Y-109435180D01*
X125038812Y-109315482D01*
X125051072Y-109191000D01*
X125051072Y-108741000D01*
X125038812Y-108616518D01*
X125002502Y-108496820D01*
X124943537Y-108386506D01*
X124864185Y-108289815D01*
X124767494Y-108210463D01*
X124657180Y-108151498D01*
X124537482Y-108115188D01*
X124413000Y-108102928D01*
X123713000Y-108102928D01*
X123588518Y-108115188D01*
X123468820Y-108151498D01*
X123358506Y-108210463D01*
X123261815Y-108289815D01*
X123182463Y-108386506D01*
X123123498Y-108496820D01*
X123087188Y-108616518D01*
X123074928Y-108741000D01*
X123074928Y-109191000D01*
X123087188Y-109315482D01*
X123123498Y-109435180D01*
X123182463Y-109545494D01*
X123261815Y-109642185D01*
X123302881Y-109675887D01*
X123299324Y-109712000D01*
X123303000Y-109749322D01*
X123303000Y-109749333D01*
X123313997Y-109860986D01*
X123342317Y-109954345D01*
X123357454Y-110004246D01*
X123428026Y-110136276D01*
X123486896Y-110208008D01*
X123523000Y-110252001D01*
X123551998Y-110275799D01*
X124503198Y-111227000D01*
X117500000Y-111227000D01*
X117500000Y-83678665D01*
X117945000Y-83678665D01*
X117945000Y-83961335D01*
X118000147Y-84238574D01*
X118108320Y-84499727D01*
X118265363Y-84734759D01*
X118465241Y-84934637D01*
X118697759Y-85090000D01*
X118465241Y-85245363D01*
X118265363Y-85445241D01*
X118108320Y-85680273D01*
X118000147Y-85941426D01*
X117945000Y-86218665D01*
X117945000Y-86501335D01*
X118000147Y-86778574D01*
X118108320Y-87039727D01*
X118265363Y-87274759D01*
X118465241Y-87474637D01*
X118697759Y-87630000D01*
X118465241Y-87785363D01*
X118265363Y-87985241D01*
X118108320Y-88220273D01*
X118000147Y-88481426D01*
X117945000Y-88758665D01*
X117945000Y-89041335D01*
X118000147Y-89318574D01*
X118108320Y-89579727D01*
X118265363Y-89814759D01*
X118465241Y-90014637D01*
X118697759Y-90170000D01*
X118465241Y-90325363D01*
X118265363Y-90525241D01*
X118108320Y-90760273D01*
X118000147Y-91021426D01*
X117945000Y-91298665D01*
X117945000Y-91581335D01*
X118000147Y-91858574D01*
X118108320Y-92119727D01*
X118265363Y-92354759D01*
X118465241Y-92554637D01*
X118697759Y-92710000D01*
X118465241Y-92865363D01*
X118265363Y-93065241D01*
X118108320Y-93300273D01*
X118000147Y-93561426D01*
X117945000Y-93838665D01*
X117945000Y-94121335D01*
X118000147Y-94398574D01*
X118108320Y-94659727D01*
X118265363Y-94894759D01*
X118465241Y-95094637D01*
X118697759Y-95250000D01*
X118465241Y-95405363D01*
X118265363Y-95605241D01*
X118108320Y-95840273D01*
X118000147Y-96101426D01*
X117945000Y-96378665D01*
X117945000Y-96661335D01*
X118000147Y-96938574D01*
X118108320Y-97199727D01*
X118265363Y-97434759D01*
X118465241Y-97634637D01*
X118697759Y-97790000D01*
X118465241Y-97945363D01*
X118265363Y-98145241D01*
X118108320Y-98380273D01*
X118000147Y-98641426D01*
X117945000Y-98918665D01*
X117945000Y-99201335D01*
X118000147Y-99478574D01*
X118108320Y-99739727D01*
X118265363Y-99974759D01*
X118465241Y-100174637D01*
X118697759Y-100330000D01*
X118465241Y-100485363D01*
X118265363Y-100685241D01*
X118108320Y-100920273D01*
X118000147Y-101181426D01*
X117945000Y-101458665D01*
X117945000Y-101741335D01*
X118000147Y-102018574D01*
X118108320Y-102279727D01*
X118265363Y-102514759D01*
X118465241Y-102714637D01*
X118697759Y-102870000D01*
X118465241Y-103025363D01*
X118265363Y-103225241D01*
X118108320Y-103460273D01*
X118000147Y-103721426D01*
X117945000Y-103998665D01*
X117945000Y-104281335D01*
X118000147Y-104558574D01*
X118108320Y-104819727D01*
X118265363Y-105054759D01*
X118465241Y-105254637D01*
X118697759Y-105410000D01*
X118465241Y-105565363D01*
X118265363Y-105765241D01*
X118108320Y-106000273D01*
X118000147Y-106261426D01*
X117945000Y-106538665D01*
X117945000Y-106821335D01*
X118000147Y-107098574D01*
X118108320Y-107359727D01*
X118265363Y-107594759D01*
X118465241Y-107794637D01*
X118697759Y-107950000D01*
X118465241Y-108105363D01*
X118265363Y-108305241D01*
X118108320Y-108540273D01*
X118000147Y-108801426D01*
X117945000Y-109078665D01*
X117945000Y-109361335D01*
X118000147Y-109638574D01*
X118108320Y-109899727D01*
X118265363Y-110134759D01*
X118465241Y-110334637D01*
X118700273Y-110491680D01*
X118961426Y-110599853D01*
X119238665Y-110655000D01*
X119521335Y-110655000D01*
X119798574Y-110599853D01*
X120059727Y-110491680D01*
X120294759Y-110334637D01*
X120494637Y-110134759D01*
X120651680Y-109899727D01*
X120662854Y-109872750D01*
X121078000Y-109872750D01*
X121090325Y-109980326D01*
X121129471Y-110099127D01*
X121191041Y-110208008D01*
X121272670Y-110302785D01*
X121371220Y-110379816D01*
X121482905Y-110436141D01*
X121603433Y-110469594D01*
X121728171Y-110478892D01*
X121777250Y-110476000D01*
X121936000Y-110317250D01*
X121936000Y-109714000D01*
X122190000Y-109714000D01*
X122190000Y-110317250D01*
X122348750Y-110476000D01*
X122397829Y-110478892D01*
X122522567Y-110469594D01*
X122643095Y-110436141D01*
X122754780Y-110379816D01*
X122853330Y-110302785D01*
X122934959Y-110208008D01*
X122996529Y-110099127D01*
X123035675Y-109980326D01*
X123048000Y-109872750D01*
X122889250Y-109714000D01*
X122190000Y-109714000D01*
X121936000Y-109714000D01*
X121236750Y-109714000D01*
X121078000Y-109872750D01*
X120662854Y-109872750D01*
X120759853Y-109638574D01*
X120815000Y-109361335D01*
X120815000Y-109078665D01*
X120759853Y-108801426D01*
X120651680Y-108540273D01*
X120494637Y-108305241D01*
X120294759Y-108105363D01*
X120062241Y-107950000D01*
X120294759Y-107794637D01*
X120494637Y-107594759D01*
X120651680Y-107359727D01*
X120759853Y-107098574D01*
X120815000Y-106821335D01*
X120815000Y-106538665D01*
X120759853Y-106261426D01*
X120651680Y-106000273D01*
X120494637Y-105765241D01*
X120294759Y-105565363D01*
X120062241Y-105410000D01*
X120103397Y-105382500D01*
X120914928Y-105382500D01*
X120914928Y-106307500D01*
X120931992Y-106480754D01*
X120982528Y-106647350D01*
X121064595Y-106800886D01*
X121175038Y-106935462D01*
X121303001Y-107040478D01*
X121303000Y-107606015D01*
X121261815Y-107639815D01*
X121182463Y-107736506D01*
X121123498Y-107846820D01*
X121087188Y-107966518D01*
X121074928Y-108091000D01*
X121074928Y-108541000D01*
X121087188Y-108665482D01*
X121123498Y-108785180D01*
X121182463Y-108895494D01*
X121240649Y-108966394D01*
X121191041Y-109023992D01*
X121129471Y-109132873D01*
X121090325Y-109251674D01*
X121078000Y-109359250D01*
X121236750Y-109518000D01*
X121936000Y-109518000D01*
X121936000Y-109469000D01*
X122190000Y-109469000D01*
X122190000Y-109518000D01*
X122889250Y-109518000D01*
X123048000Y-109359250D01*
X123035675Y-109251674D01*
X122996529Y-109132873D01*
X122934959Y-109023992D01*
X122885351Y-108966394D01*
X122943537Y-108895494D01*
X123002502Y-108785180D01*
X123038812Y-108665482D01*
X123051072Y-108541000D01*
X123051072Y-108091000D01*
X123038812Y-107966518D01*
X123002502Y-107846820D01*
X122963312Y-107773500D01*
X130439928Y-107773500D01*
X130452188Y-107897982D01*
X130488498Y-108017680D01*
X130547463Y-108127994D01*
X130626815Y-108224685D01*
X130723506Y-108304037D01*
X130833820Y-108363002D01*
X130953518Y-108399312D01*
X131078000Y-108411572D01*
X131667250Y-108408500D01*
X131826000Y-108249750D01*
X131826000Y-107188000D01*
X130601750Y-107188000D01*
X130443000Y-107346750D01*
X130439928Y-107773500D01*
X122963312Y-107773500D01*
X122943537Y-107736506D01*
X122864185Y-107639815D01*
X122823000Y-107606015D01*
X122823000Y-107195572D01*
X123053000Y-107195572D01*
X123226254Y-107178508D01*
X123392850Y-107127972D01*
X123546386Y-107045905D01*
X123680962Y-106935462D01*
X123791405Y-106800886D01*
X123873472Y-106647350D01*
X123924008Y-106480754D01*
X123937033Y-106348500D01*
X130439928Y-106348500D01*
X130443000Y-106775250D01*
X130601750Y-106934000D01*
X131826000Y-106934000D01*
X131826000Y-105872250D01*
X131667250Y-105713500D01*
X131078000Y-105710428D01*
X130953518Y-105722688D01*
X130833820Y-105758998D01*
X130723506Y-105817963D01*
X130626815Y-105897315D01*
X130547463Y-105994006D01*
X130488498Y-106104320D01*
X130452188Y-106224018D01*
X130439928Y-106348500D01*
X123937033Y-106348500D01*
X123941072Y-106307500D01*
X123941072Y-105382500D01*
X123924008Y-105209246D01*
X123873472Y-105042650D01*
X123791405Y-104889114D01*
X123680962Y-104754538D01*
X123546386Y-104644095D01*
X123392850Y-104562028D01*
X123226254Y-104511492D01*
X123053000Y-104494428D01*
X121803000Y-104494428D01*
X121629746Y-104511492D01*
X121463150Y-104562028D01*
X121309614Y-104644095D01*
X121175038Y-104754538D01*
X121064595Y-104889114D01*
X120982528Y-105042650D01*
X120931992Y-105209246D01*
X120914928Y-105382500D01*
X120103397Y-105382500D01*
X120294759Y-105254637D01*
X120494637Y-105054759D01*
X120651680Y-104819727D01*
X120759853Y-104558574D01*
X120815000Y-104281335D01*
X120815000Y-103998665D01*
X120759853Y-103721426D01*
X120651680Y-103460273D01*
X120494637Y-103225241D01*
X120294759Y-103025363D01*
X120062241Y-102870000D01*
X120294759Y-102714637D01*
X120494637Y-102514759D01*
X120651680Y-102279727D01*
X120759853Y-102018574D01*
X120815000Y-101741335D01*
X120815000Y-101458665D01*
X120759853Y-101181426D01*
X120651680Y-100920273D01*
X120494637Y-100685241D01*
X120294759Y-100485363D01*
X120062241Y-100330000D01*
X120294759Y-100174637D01*
X120494637Y-99974759D01*
X120598043Y-99820000D01*
X120843199Y-99820000D01*
X121668001Y-100644803D01*
X121668001Y-101532724D01*
X121629746Y-101536492D01*
X121463150Y-101587028D01*
X121309614Y-101669095D01*
X121175038Y-101779538D01*
X121064595Y-101914114D01*
X120982528Y-102067650D01*
X120931992Y-102234246D01*
X120914928Y-102407500D01*
X120914928Y-103332500D01*
X120931992Y-103505754D01*
X120982528Y-103672350D01*
X121064595Y-103825886D01*
X121175038Y-103960462D01*
X121309614Y-104070905D01*
X121463150Y-104152972D01*
X121629746Y-104203508D01*
X121803000Y-104220572D01*
X123053000Y-104220572D01*
X123226254Y-104203508D01*
X123392850Y-104152972D01*
X123546386Y-104070905D01*
X123680962Y-103960462D01*
X123791405Y-103825886D01*
X123873472Y-103672350D01*
X123924008Y-103505754D01*
X123941072Y-103332500D01*
X123941072Y-102407500D01*
X123924008Y-102234246D01*
X123873472Y-102067650D01*
X123791405Y-101914114D01*
X123680962Y-101779538D01*
X123546386Y-101669095D01*
X123392850Y-101587028D01*
X123226254Y-101536492D01*
X123188000Y-101532724D01*
X123188000Y-100367322D01*
X123191676Y-100329999D01*
X123188000Y-100292676D01*
X123188000Y-100292667D01*
X123177003Y-100181014D01*
X123133546Y-100037753D01*
X123062974Y-99905724D01*
X122968001Y-99789999D01*
X122939003Y-99766201D01*
X121721804Y-98549003D01*
X121698001Y-98519999D01*
X121582276Y-98425026D01*
X121450247Y-98354454D01*
X121306986Y-98310997D01*
X121195333Y-98300000D01*
X121195322Y-98300000D01*
X121158000Y-98296324D01*
X121120678Y-98300000D01*
X120598043Y-98300000D01*
X120494637Y-98145241D01*
X120294759Y-97945363D01*
X120062241Y-97790000D01*
X120294759Y-97634637D01*
X120494637Y-97434759D01*
X120651680Y-97199727D01*
X120759853Y-96938574D01*
X120815000Y-96661335D01*
X120815000Y-96378665D01*
X120759853Y-96101426D01*
X120651680Y-95840273D01*
X120494637Y-95605241D01*
X120294759Y-95405363D01*
X120062241Y-95250000D01*
X120294759Y-95094637D01*
X120494637Y-94894759D01*
X120651680Y-94659727D01*
X120759853Y-94398574D01*
X120815000Y-94121335D01*
X120815000Y-93838665D01*
X120759853Y-93561426D01*
X120651680Y-93300273D01*
X120494637Y-93065241D01*
X120294759Y-92865363D01*
X120062241Y-92710000D01*
X120294759Y-92554637D01*
X120494637Y-92354759D01*
X120651680Y-92119727D01*
X120759853Y-91858574D01*
X120815000Y-91581335D01*
X120815000Y-91298665D01*
X120759853Y-91021426D01*
X120651680Y-90760273D01*
X120494637Y-90525241D01*
X120294759Y-90325363D01*
X120062241Y-90170000D01*
X120294759Y-90014637D01*
X120494637Y-89814759D01*
X120651680Y-89579727D01*
X120759853Y-89318574D01*
X120815000Y-89041335D01*
X120815000Y-88758665D01*
X120759853Y-88481426D01*
X120651680Y-88220273D01*
X120494637Y-87985241D01*
X120294759Y-87785363D01*
X120062241Y-87630000D01*
X120294759Y-87474637D01*
X120494637Y-87274759D01*
X120651680Y-87039727D01*
X120759853Y-86778574D01*
X120815000Y-86501335D01*
X120815000Y-86218665D01*
X120759853Y-85941426D01*
X120651680Y-85680273D01*
X120494637Y-85445241D01*
X120294759Y-85245363D01*
X120062241Y-85090000D01*
X120294759Y-84934637D01*
X120494637Y-84734759D01*
X120651680Y-84499727D01*
X120759853Y-84238574D01*
X120815000Y-83961335D01*
X120815000Y-83678665D01*
X120759853Y-83401426D01*
X120651680Y-83140273D01*
X120494637Y-82905241D01*
X120294759Y-82705363D01*
X120059727Y-82548320D01*
X120049135Y-82543933D01*
X120235131Y-82432385D01*
X120443519Y-82243414D01*
X120611037Y-82017420D01*
X120731246Y-81763087D01*
X120771904Y-81629039D01*
X120649915Y-81407000D01*
X119507000Y-81407000D01*
X119507000Y-81427000D01*
X119253000Y-81427000D01*
X119253000Y-81407000D01*
X118110085Y-81407000D01*
X117988096Y-81629039D01*
X118028754Y-81763087D01*
X118148963Y-82017420D01*
X118316481Y-82243414D01*
X118524869Y-82432385D01*
X118710865Y-82543933D01*
X118700273Y-82548320D01*
X118465241Y-82705363D01*
X118265363Y-82905241D01*
X118108320Y-83140273D01*
X118000147Y-83401426D01*
X117945000Y-83678665D01*
X117500000Y-83678665D01*
X117500000Y-62415010D01*
X117545820Y-62439502D01*
X117665518Y-62475812D01*
X117790000Y-62488072D01*
X122904250Y-62485000D01*
X123063000Y-62326250D01*
X123063000Y-57277000D01*
X123043000Y-57277000D01*
X123043000Y-57023000D01*
X123063000Y-57023000D01*
X123063000Y-51973750D01*
X123317000Y-51973750D01*
X123317000Y-57023000D01*
X123337000Y-57023000D01*
X123337000Y-57277000D01*
X123317000Y-57277000D01*
X123317000Y-62326250D01*
X123475750Y-62485000D01*
X128590000Y-62488072D01*
X128714482Y-62475812D01*
X128834180Y-62439502D01*
X128944494Y-62380537D01*
X129041185Y-62301185D01*
X129120537Y-62204494D01*
X129179502Y-62094180D01*
X129215812Y-61974482D01*
X129228072Y-61850000D01*
X129226987Y-60290514D01*
X129291595Y-60411387D01*
X129402038Y-60545962D01*
X129536613Y-60656405D01*
X129570000Y-60674251D01*
X129570001Y-63466239D01*
X129564509Y-63522000D01*
X129586423Y-63744498D01*
X129651324Y-63958446D01*
X129651325Y-63958447D01*
X129756717Y-64155623D01*
X129898552Y-64328449D01*
X129941860Y-64363991D01*
X130474868Y-64897000D01*
X130206868Y-65165000D01*
X127778072Y-65165000D01*
X127778072Y-64000000D01*
X127765812Y-63875518D01*
X127729502Y-63755820D01*
X127670537Y-63645506D01*
X127591185Y-63548815D01*
X127494494Y-63469463D01*
X127384180Y-63410498D01*
X127264482Y-63374188D01*
X127140000Y-63361928D01*
X126040000Y-63361928D01*
X125915518Y-63374188D01*
X125795820Y-63410498D01*
X125740000Y-63440335D01*
X125684180Y-63410498D01*
X125564482Y-63374188D01*
X125440000Y-63361928D01*
X124340000Y-63361928D01*
X124215518Y-63374188D01*
X124095820Y-63410498D01*
X124040000Y-63440335D01*
X123984180Y-63410498D01*
X123864482Y-63374188D01*
X123740000Y-63361928D01*
X123475750Y-63365000D01*
X123317000Y-63523750D01*
X123317000Y-66173000D01*
X123337000Y-66173000D01*
X123337000Y-66427000D01*
X123317000Y-66427000D01*
X123317000Y-69076250D01*
X123475750Y-69235000D01*
X123740000Y-69238072D01*
X123864482Y-69225812D01*
X123984180Y-69189502D01*
X124040000Y-69159665D01*
X124095820Y-69189502D01*
X124215518Y-69225812D01*
X124340000Y-69238072D01*
X125440000Y-69238072D01*
X125564482Y-69225812D01*
X125684180Y-69189502D01*
X125740000Y-69159665D01*
X125795820Y-69189502D01*
X125915518Y-69225812D01*
X126040000Y-69238072D01*
X127140000Y-69238072D01*
X127264482Y-69225812D01*
X127384180Y-69189502D01*
X127494494Y-69130537D01*
X127591185Y-69051185D01*
X127670537Y-68954494D01*
X127729502Y-68844180D01*
X127765812Y-68724482D01*
X127778072Y-68600000D01*
X127778072Y-67435000D01*
X130621249Y-67435000D01*
X130677000Y-67440491D01*
X130732751Y-67435000D01*
X130732752Y-67435000D01*
X130899499Y-67418577D01*
X131113447Y-67353676D01*
X131310623Y-67248284D01*
X131483449Y-67106449D01*
X131518995Y-67063136D01*
X132247060Y-66335072D01*
X132880000Y-66335072D01*
X133004482Y-66322812D01*
X133124180Y-66286502D01*
X133234494Y-66227537D01*
X133331185Y-66148185D01*
X133410537Y-66051494D01*
X133469502Y-65941180D01*
X133485117Y-65889702D01*
X135066903Y-65889702D01*
X135138486Y-66133671D01*
X135393996Y-66254571D01*
X135668184Y-66323300D01*
X135950512Y-66337217D01*
X136230130Y-66295787D01*
X136496292Y-66200603D01*
X136621514Y-66133671D01*
X136693097Y-65889702D01*
X135880000Y-65076605D01*
X135066903Y-65889702D01*
X133485117Y-65889702D01*
X133505812Y-65821482D01*
X133518072Y-65697000D01*
X133518072Y-64967512D01*
X134439783Y-64967512D01*
X134481213Y-65247130D01*
X134576397Y-65513292D01*
X134643329Y-65638514D01*
X134887298Y-65710097D01*
X135700395Y-64897000D01*
X136059605Y-64897000D01*
X136872702Y-65710097D01*
X137116671Y-65638514D01*
X137237571Y-65383004D01*
X137306300Y-65108816D01*
X137320217Y-64826488D01*
X137278787Y-64546870D01*
X137183603Y-64280708D01*
X137116671Y-64155486D01*
X136872702Y-64083903D01*
X136059605Y-64897000D01*
X135700395Y-64897000D01*
X134887298Y-64083903D01*
X134643329Y-64155486D01*
X134522429Y-64410996D01*
X134453700Y-64685184D01*
X134439783Y-64967512D01*
X133518072Y-64967512D01*
X133518072Y-64097000D01*
X133505812Y-63972518D01*
X133485118Y-63904298D01*
X135066903Y-63904298D01*
X135880000Y-64717395D01*
X136693097Y-63904298D01*
X136621514Y-63660329D01*
X136366004Y-63539429D01*
X136091816Y-63470700D01*
X135809488Y-63456783D01*
X135529870Y-63498213D01*
X135263708Y-63593397D01*
X135138486Y-63660329D01*
X135066903Y-63904298D01*
X133485118Y-63904298D01*
X133469502Y-63852820D01*
X133410537Y-63742506D01*
X133331185Y-63645815D01*
X133234494Y-63566463D01*
X133124180Y-63507498D01*
X133004482Y-63471188D01*
X132880000Y-63458928D01*
X132247060Y-63458928D01*
X131840000Y-63051868D01*
X131840000Y-60674251D01*
X131873387Y-60656405D01*
X132007962Y-60545962D01*
X132118405Y-60411387D01*
X132200472Y-60257851D01*
X132251008Y-60091255D01*
X132268072Y-59918001D01*
X132268072Y-56667999D01*
X132251008Y-56494745D01*
X132200472Y-56328149D01*
X132118405Y-56174613D01*
X132007962Y-56040038D01*
X131873387Y-55929595D01*
X131719851Y-55847528D01*
X131553255Y-55796992D01*
X131380001Y-55779928D01*
X130029999Y-55779928D01*
X129856745Y-55796992D01*
X129690149Y-55847528D01*
X129536613Y-55929595D01*
X129402038Y-56040038D01*
X129291595Y-56174613D01*
X129225394Y-56298466D01*
X129226762Y-54331891D01*
X129876519Y-54331891D01*
X129973843Y-54606252D01*
X130122822Y-54856355D01*
X130317731Y-55072588D01*
X130551080Y-55246641D01*
X130813901Y-55371825D01*
X130961110Y-55416476D01*
X131191000Y-55295155D01*
X131191000Y-54102000D01*
X129997186Y-54102000D01*
X129876519Y-54331891D01*
X129226762Y-54331891D01*
X129227258Y-53618109D01*
X129876519Y-53618109D01*
X129997186Y-53848000D01*
X131191000Y-53848000D01*
X131191000Y-52654845D01*
X131445000Y-52654845D01*
X131445000Y-53848000D01*
X131465000Y-53848000D01*
X131465000Y-54102000D01*
X131445000Y-54102000D01*
X131445000Y-55295155D01*
X131674890Y-55416476D01*
X131822099Y-55371825D01*
X132084920Y-55246641D01*
X132318269Y-55072588D01*
X132394034Y-54988534D01*
X132418498Y-55069180D01*
X132477463Y-55179494D01*
X132556815Y-55276185D01*
X132653506Y-55355537D01*
X132763820Y-55414502D01*
X132883518Y-55450812D01*
X133008000Y-55463072D01*
X133740941Y-55463072D01*
X134120001Y-55842133D01*
X134120001Y-55911749D01*
X134086613Y-55929595D01*
X133952038Y-56040038D01*
X133841595Y-56174613D01*
X133759528Y-56328149D01*
X133708992Y-56494745D01*
X133691928Y-56667999D01*
X133691928Y-59918001D01*
X133708992Y-60091255D01*
X133759528Y-60257851D01*
X133841595Y-60411387D01*
X133952038Y-60545962D01*
X134086613Y-60656405D01*
X134240149Y-60738472D01*
X134406745Y-60789008D01*
X134579999Y-60806072D01*
X135930001Y-60806072D01*
X136103255Y-60789008D01*
X136269851Y-60738472D01*
X136423387Y-60656405D01*
X136557962Y-60545962D01*
X136668405Y-60411387D01*
X136750472Y-60257851D01*
X136801008Y-60091255D01*
X136818072Y-59918001D01*
X136818072Y-56667999D01*
X136801008Y-56494745D01*
X136750472Y-56328149D01*
X136668405Y-56174613D01*
X136557962Y-56040038D01*
X136423387Y-55929595D01*
X136390000Y-55911749D01*
X136390000Y-55427741D01*
X136395490Y-55371999D01*
X136390000Y-55316257D01*
X136390000Y-55316248D01*
X136373577Y-55149501D01*
X136308676Y-54935553D01*
X136203284Y-54738377D01*
X136061449Y-54565551D01*
X136018140Y-54530008D01*
X135346072Y-53857941D01*
X135346072Y-53125000D01*
X135333812Y-53000518D01*
X135297502Y-52880820D01*
X135238537Y-52770506D01*
X135159185Y-52673815D01*
X135062494Y-52594463D01*
X134952180Y-52535498D01*
X134832482Y-52499188D01*
X134708000Y-52486928D01*
X133008000Y-52486928D01*
X132883518Y-52499188D01*
X132763820Y-52535498D01*
X132653506Y-52594463D01*
X132556815Y-52673815D01*
X132477463Y-52770506D01*
X132418498Y-52880820D01*
X132394034Y-52961466D01*
X132318269Y-52877412D01*
X132084920Y-52703359D01*
X131822099Y-52578175D01*
X131674890Y-52533524D01*
X131445000Y-52654845D01*
X131191000Y-52654845D01*
X130961110Y-52533524D01*
X130813901Y-52578175D01*
X130551080Y-52703359D01*
X130317731Y-52877412D01*
X130122822Y-53093645D01*
X129973843Y-53343748D01*
X129876519Y-53618109D01*
X129227258Y-53618109D01*
X129228072Y-52450000D01*
X129215812Y-52325518D01*
X129179502Y-52205820D01*
X129120537Y-52095506D01*
X129041185Y-51998815D01*
X128944494Y-51919463D01*
X128834180Y-51860498D01*
X128714482Y-51824188D01*
X128590000Y-51811928D01*
X123475750Y-51815000D01*
X123317000Y-51973750D01*
X123063000Y-51973750D01*
X122904250Y-51815000D01*
X117790000Y-51811928D01*
X117665518Y-51824188D01*
X117545820Y-51860498D01*
X117500000Y-51884990D01*
X117500000Y-51460000D01*
X139040000Y-51460000D01*
X139040001Y-95423655D01*
G04 #@! TA.AperFunction,Conductor*
D23*
G36*
X139040001Y-95423655D02*
G01*
X138930355Y-95324822D01*
X138680252Y-95175843D01*
X138405891Y-95078519D01*
X138176000Y-95199186D01*
X138176000Y-96393000D01*
X138196000Y-96393000D01*
X138196000Y-96647000D01*
X138176000Y-96647000D01*
X138176000Y-96667000D01*
X137922000Y-96667000D01*
X137922000Y-96647000D01*
X136728845Y-96647000D01*
X136607524Y-96876890D01*
X136652175Y-97024099D01*
X136777359Y-97286920D01*
X136951412Y-97520269D01*
X137167645Y-97715178D01*
X137284534Y-97784805D01*
X137102368Y-97906525D01*
X136895525Y-98113368D01*
X136854344Y-98175000D01*
X135754521Y-98175000D01*
X135734637Y-98145241D01*
X135534759Y-97945363D01*
X135302241Y-97790000D01*
X135534759Y-97634637D01*
X135734637Y-97434759D01*
X135891680Y-97199727D01*
X135999853Y-96938574D01*
X136055000Y-96661335D01*
X136055000Y-96378665D01*
X136012123Y-96163110D01*
X136607524Y-96163110D01*
X136728845Y-96393000D01*
X137922000Y-96393000D01*
X137922000Y-95199186D01*
X137692109Y-95078519D01*
X137417748Y-95175843D01*
X137167645Y-95324822D01*
X136951412Y-95519731D01*
X136777359Y-95753080D01*
X136652175Y-96015901D01*
X136607524Y-96163110D01*
X136012123Y-96163110D01*
X135999853Y-96101426D01*
X135891680Y-95840273D01*
X135734637Y-95605241D01*
X135534759Y-95405363D01*
X135302241Y-95250000D01*
X135534759Y-95094637D01*
X135734637Y-94894759D01*
X135891680Y-94659727D01*
X135999853Y-94398574D01*
X136055000Y-94121335D01*
X136055000Y-93838665D01*
X135999853Y-93561426D01*
X135891680Y-93300273D01*
X135734637Y-93065241D01*
X135534759Y-92865363D01*
X135302241Y-92710000D01*
X135534759Y-92554637D01*
X135734637Y-92354759D01*
X135891680Y-92119727D01*
X135999853Y-91858574D01*
X136055000Y-91581335D01*
X136055000Y-91298665D01*
X135999853Y-91021426D01*
X135891680Y-90760273D01*
X135734637Y-90525241D01*
X135534759Y-90325363D01*
X135302241Y-90170000D01*
X135534759Y-90014637D01*
X135734637Y-89814759D01*
X135891680Y-89579727D01*
X135999853Y-89318574D01*
X136055000Y-89041335D01*
X136055000Y-88758665D01*
X135999853Y-88481426D01*
X135891680Y-88220273D01*
X135734637Y-87985241D01*
X135534759Y-87785363D01*
X135302241Y-87630000D01*
X135534759Y-87474637D01*
X135734637Y-87274759D01*
X135891680Y-87039727D01*
X135999853Y-86778574D01*
X136055000Y-86501335D01*
X136055000Y-86218665D01*
X135999853Y-85941426D01*
X135891680Y-85680273D01*
X135734637Y-85445241D01*
X135534759Y-85245363D01*
X135302241Y-85090000D01*
X135534759Y-84934637D01*
X135734637Y-84734759D01*
X135891680Y-84499727D01*
X135999853Y-84238574D01*
X136055000Y-83961335D01*
X136055000Y-83678665D01*
X135999853Y-83401426D01*
X135891680Y-83140273D01*
X135734637Y-82905241D01*
X135534759Y-82705363D01*
X135302241Y-82550000D01*
X135534759Y-82394637D01*
X135734637Y-82194759D01*
X135891680Y-81959727D01*
X135999853Y-81698574D01*
X136055000Y-81421335D01*
X136055000Y-81138665D01*
X135999853Y-80861426D01*
X135891680Y-80600273D01*
X135734637Y-80365241D01*
X135534759Y-80165363D01*
X135302241Y-80010000D01*
X135534759Y-79854637D01*
X135734637Y-79654759D01*
X135891680Y-79419727D01*
X135999853Y-79158574D01*
X136055000Y-78881335D01*
X136055000Y-78598665D01*
X135999853Y-78321426D01*
X135891680Y-78060273D01*
X135734637Y-77825241D01*
X135534759Y-77625363D01*
X135299727Y-77468320D01*
X135289135Y-77463933D01*
X135475131Y-77352385D01*
X135683519Y-77163414D01*
X135851037Y-76937420D01*
X135971246Y-76683087D01*
X136011904Y-76549039D01*
X135889915Y-76327000D01*
X134747000Y-76327000D01*
X134747000Y-76347000D01*
X134493000Y-76347000D01*
X134493000Y-76327000D01*
X133350085Y-76327000D01*
X133228096Y-76549039D01*
X133268754Y-76683087D01*
X133388963Y-76937420D01*
X133556481Y-77163414D01*
X133764869Y-77352385D01*
X133950865Y-77463933D01*
X133940273Y-77468320D01*
X133705241Y-77625363D01*
X133505363Y-77825241D01*
X133348320Y-78060273D01*
X133240147Y-78321426D01*
X133185000Y-78598665D01*
X133185000Y-78881335D01*
X133240147Y-79158574D01*
X133348320Y-79419727D01*
X133505363Y-79654759D01*
X133705241Y-79854637D01*
X133937759Y-80010000D01*
X133705241Y-80165363D01*
X133505363Y-80365241D01*
X133348320Y-80600273D01*
X133240147Y-80861426D01*
X133185000Y-81138665D01*
X133185000Y-81421335D01*
X133240147Y-81698574D01*
X133348320Y-81959727D01*
X133505363Y-82194759D01*
X133705241Y-82394637D01*
X133937759Y-82550000D01*
X133705241Y-82705363D01*
X133505363Y-82905241D01*
X133348320Y-83140273D01*
X133240147Y-83401426D01*
X133185000Y-83678665D01*
X133185000Y-83961335D01*
X133240147Y-84238574D01*
X133348320Y-84499727D01*
X133505363Y-84734759D01*
X133705241Y-84934637D01*
X133937759Y-85090000D01*
X133705241Y-85245363D01*
X133505363Y-85445241D01*
X133348320Y-85680273D01*
X133240147Y-85941426D01*
X133185000Y-86218665D01*
X133185000Y-86501335D01*
X133240147Y-86778574D01*
X133348320Y-87039727D01*
X133505363Y-87274759D01*
X133705241Y-87474637D01*
X133937759Y-87630000D01*
X133705241Y-87785363D01*
X133505363Y-87985241D01*
X133348320Y-88220273D01*
X133240147Y-88481426D01*
X133185000Y-88758665D01*
X133185000Y-89041335D01*
X133240147Y-89318574D01*
X133348320Y-89579727D01*
X133505363Y-89814759D01*
X133705241Y-90014637D01*
X133937759Y-90170000D01*
X133705241Y-90325363D01*
X133505363Y-90525241D01*
X133348320Y-90760273D01*
X133240147Y-91021426D01*
X133185000Y-91298665D01*
X133185000Y-91581335D01*
X133240147Y-91858574D01*
X133348320Y-92119727D01*
X133505363Y-92354759D01*
X133705241Y-92554637D01*
X133937759Y-92710000D01*
X133705241Y-92865363D01*
X133505363Y-93065241D01*
X133348320Y-93300273D01*
X133240147Y-93561426D01*
X133185000Y-93838665D01*
X133185000Y-94121335D01*
X133240147Y-94398574D01*
X133348320Y-94659727D01*
X133505363Y-94894759D01*
X133705241Y-95094637D01*
X133937759Y-95250000D01*
X133705241Y-95405363D01*
X133505363Y-95605241D01*
X133348320Y-95840273D01*
X133240147Y-96101426D01*
X133185000Y-96378665D01*
X133185000Y-96661335D01*
X133240147Y-96938574D01*
X133348320Y-97199727D01*
X133505363Y-97434759D01*
X133705241Y-97634637D01*
X133937759Y-97790000D01*
X133705241Y-97945363D01*
X133505363Y-98145241D01*
X133485479Y-98175000D01*
X133387194Y-98175000D01*
X133362972Y-98095150D01*
X133280905Y-97941614D01*
X133170462Y-97807038D01*
X133035886Y-97696595D01*
X132882350Y-97614528D01*
X132715754Y-97563992D01*
X132542500Y-97546928D01*
X131617500Y-97546928D01*
X131444246Y-97563992D01*
X131277650Y-97614528D01*
X131124114Y-97696595D01*
X130989538Y-97807038D01*
X130879095Y-97941614D01*
X130797028Y-98095150D01*
X130746492Y-98261746D01*
X130729428Y-98435000D01*
X130729428Y-99685000D01*
X130746492Y-99858254D01*
X130797028Y-100024850D01*
X130879095Y-100178386D01*
X130989538Y-100312962D01*
X131010299Y-100330000D01*
X130989538Y-100347038D01*
X130879095Y-100481614D01*
X130797028Y-100635150D01*
X130746492Y-100801746D01*
X130729428Y-100975000D01*
X130729428Y-102225000D01*
X130746492Y-102398254D01*
X130797028Y-102564850D01*
X130879095Y-102718386D01*
X130960630Y-102817738D01*
X130834614Y-102885095D01*
X130700038Y-102995538D01*
X130589595Y-103130114D01*
X130551706Y-103201000D01*
X130487579Y-103201000D01*
X130164747Y-102878169D01*
X130195462Y-102852962D01*
X130305905Y-102718386D01*
X130387972Y-102564850D01*
X130438508Y-102398254D01*
X130455572Y-102225000D01*
X130455572Y-100975000D01*
X130438508Y-100801746D01*
X130387972Y-100635150D01*
X130305905Y-100481614D01*
X130195462Y-100347038D01*
X130174701Y-100330000D01*
X130195462Y-100312962D01*
X130305905Y-100178386D01*
X130387972Y-100024850D01*
X130438508Y-99858254D01*
X130455572Y-99685000D01*
X130455572Y-98435000D01*
X130438508Y-98261746D01*
X130387972Y-98095150D01*
X130305905Y-97941614D01*
X130195462Y-97807038D01*
X130060886Y-97696595D01*
X129990000Y-97658706D01*
X129990000Y-77257000D01*
X130058928Y-77257000D01*
X130071188Y-77381482D01*
X130107498Y-77501180D01*
X130166463Y-77611494D01*
X130245815Y-77708185D01*
X130342506Y-77787537D01*
X130452820Y-77846502D01*
X130572518Y-77882812D01*
X130697000Y-77895072D01*
X131286250Y-77892000D01*
X131445000Y-77733250D01*
X131445000Y-76671500D01*
X131699000Y-76671500D01*
X131699000Y-77733250D01*
X131857750Y-77892000D01*
X132447000Y-77895072D01*
X132571482Y-77882812D01*
X132691180Y-77846502D01*
X132801494Y-77787537D01*
X132898185Y-77708185D01*
X132977537Y-77611494D01*
X133036502Y-77501180D01*
X133072812Y-77381482D01*
X133085072Y-77257000D01*
X133082000Y-76830250D01*
X132923250Y-76671500D01*
X131699000Y-76671500D01*
X131445000Y-76671500D01*
X130220750Y-76671500D01*
X130062000Y-76830250D01*
X130058928Y-77257000D01*
X129990000Y-77257000D01*
X129990000Y-75832000D01*
X130058928Y-75832000D01*
X130062000Y-76258750D01*
X130220750Y-76417500D01*
X131445000Y-76417500D01*
X131445000Y-75355750D01*
X131699000Y-75355750D01*
X131699000Y-76417500D01*
X132923250Y-76417500D01*
X133082000Y-76258750D01*
X133085072Y-75832000D01*
X133072812Y-75707518D01*
X133036502Y-75587820D01*
X132977537Y-75477506D01*
X132898185Y-75380815D01*
X132801494Y-75301463D01*
X132691180Y-75242498D01*
X132571482Y-75206188D01*
X132447000Y-75193928D01*
X131857750Y-75197000D01*
X131699000Y-75355750D01*
X131445000Y-75355750D01*
X131286250Y-75197000D01*
X130697000Y-75193928D01*
X130572518Y-75206188D01*
X130452820Y-75242498D01*
X130342506Y-75301463D01*
X130245815Y-75380815D01*
X130166463Y-75477506D01*
X130107498Y-75587820D01*
X130071188Y-75707518D01*
X130058928Y-75832000D01*
X129990000Y-75832000D01*
X129990000Y-74704500D01*
X130373308Y-74704500D01*
X130453614Y-74770405D01*
X130607150Y-74852472D01*
X130773746Y-74903008D01*
X130947000Y-74920072D01*
X132197000Y-74920072D01*
X132370254Y-74903008D01*
X132536850Y-74852472D01*
X132644372Y-74795000D01*
X133735716Y-74795000D01*
X133940273Y-74931680D01*
X133950865Y-74936067D01*
X133764869Y-75047615D01*
X133556481Y-75236586D01*
X133388963Y-75462580D01*
X133268754Y-75716913D01*
X133228096Y-75850961D01*
X133350085Y-76073000D01*
X134493000Y-76073000D01*
X134493000Y-76053000D01*
X134747000Y-76053000D01*
X134747000Y-76073000D01*
X135889915Y-76073000D01*
X136011904Y-75850961D01*
X135971246Y-75716913D01*
X135851037Y-75462580D01*
X135683519Y-75236586D01*
X135475131Y-75047615D01*
X135289135Y-74936067D01*
X135299727Y-74931680D01*
X135534759Y-74774637D01*
X135734637Y-74574759D01*
X135891680Y-74339727D01*
X135999853Y-74078574D01*
X136055000Y-73801335D01*
X136055000Y-73518665D01*
X135999853Y-73241426D01*
X135891680Y-72980273D01*
X135734637Y-72745241D01*
X135534759Y-72545363D01*
X135299727Y-72388320D01*
X135038574Y-72280147D01*
X134761335Y-72225000D01*
X134478665Y-72225000D01*
X134201426Y-72280147D01*
X133940273Y-72388320D01*
X133735716Y-72525000D01*
X132862682Y-72525000D01*
X132824962Y-72479038D01*
X132690386Y-72368595D01*
X132536850Y-72286528D01*
X132370254Y-72235992D01*
X132197000Y-72218928D01*
X130947000Y-72218928D01*
X130773746Y-72235992D01*
X130607150Y-72286528D01*
X130453614Y-72368595D01*
X130373308Y-72434500D01*
X122934632Y-72434500D01*
X122872102Y-72371971D01*
X122973254Y-72362008D01*
X123139850Y-72311472D01*
X123293386Y-72229405D01*
X123427962Y-72118962D01*
X123538405Y-71984386D01*
X123620472Y-71830850D01*
X123647727Y-71741000D01*
X123961928Y-71741000D01*
X123974188Y-71865482D01*
X124010498Y-71985180D01*
X124069463Y-72095494D01*
X124148815Y-72192185D01*
X124245506Y-72271537D01*
X124355820Y-72330502D01*
X124475518Y-72366812D01*
X124600000Y-72379072D01*
X125026750Y-72376000D01*
X125185500Y-72217250D01*
X125185500Y-70993000D01*
X125439500Y-70993000D01*
X125439500Y-72217250D01*
X125598250Y-72376000D01*
X126025000Y-72379072D01*
X126149482Y-72366812D01*
X126269180Y-72330502D01*
X126379494Y-72271537D01*
X126476185Y-72192185D01*
X126555537Y-72095494D01*
X126614502Y-71985180D01*
X126650812Y-71865482D01*
X126663072Y-71741000D01*
X126660000Y-71151750D01*
X126501250Y-70993000D01*
X125439500Y-70993000D01*
X125185500Y-70993000D01*
X124123750Y-70993000D01*
X123965000Y-71151750D01*
X123961928Y-71741000D01*
X123647727Y-71741000D01*
X123671008Y-71664254D01*
X123688072Y-71491000D01*
X123688072Y-70241000D01*
X123671008Y-70067746D01*
X123647728Y-69991000D01*
X123961928Y-69991000D01*
X123965000Y-70580250D01*
X124123750Y-70739000D01*
X125185500Y-70739000D01*
X125185500Y-69514750D01*
X125439500Y-69514750D01*
X125439500Y-70739000D01*
X126501250Y-70739000D01*
X126660000Y-70580250D01*
X126663072Y-69991000D01*
X126650812Y-69866518D01*
X126614502Y-69746820D01*
X126555537Y-69636506D01*
X126476185Y-69539815D01*
X126379494Y-69460463D01*
X126269180Y-69401498D01*
X126149482Y-69365188D01*
X126025000Y-69352928D01*
X125598250Y-69356000D01*
X125439500Y-69514750D01*
X125185500Y-69514750D01*
X125026750Y-69356000D01*
X124600000Y-69352928D01*
X124475518Y-69365188D01*
X124355820Y-69401498D01*
X124245506Y-69460463D01*
X124148815Y-69539815D01*
X124069463Y-69636506D01*
X124010498Y-69746820D01*
X123974188Y-69866518D01*
X123961928Y-69991000D01*
X123647728Y-69991000D01*
X123620472Y-69901150D01*
X123538405Y-69747614D01*
X123427962Y-69613038D01*
X123293386Y-69502595D01*
X123139850Y-69420528D01*
X122973254Y-69369992D01*
X122800000Y-69352928D01*
X122375000Y-69352928D01*
X122375000Y-69178373D01*
X122395820Y-69189502D01*
X122515518Y-69225812D01*
X122640000Y-69238072D01*
X122904250Y-69235000D01*
X123063000Y-69076250D01*
X123063000Y-66427000D01*
X123043000Y-66427000D01*
X123043000Y-66173000D01*
X123063000Y-66173000D01*
X123063000Y-63523750D01*
X122904250Y-63365000D01*
X122640000Y-63361928D01*
X122515518Y-63374188D01*
X122395820Y-63410498D01*
X122340000Y-63440335D01*
X122284180Y-63410498D01*
X122164482Y-63374188D01*
X122040000Y-63361928D01*
X120940000Y-63361928D01*
X120815518Y-63374188D01*
X120695820Y-63410498D01*
X120640000Y-63440335D01*
X120584180Y-63410498D01*
X120464482Y-63374188D01*
X120340000Y-63361928D01*
X119240000Y-63361928D01*
X119115518Y-63374188D01*
X118995820Y-63410498D01*
X118885506Y-63469463D01*
X118788815Y-63548815D01*
X118709463Y-63645506D01*
X118650498Y-63755820D01*
X118614188Y-63875518D01*
X118601928Y-64000000D01*
X118601928Y-68600000D01*
X118614188Y-68724482D01*
X118650498Y-68844180D01*
X118655001Y-68852604D01*
X118655001Y-70839239D01*
X118649509Y-70895000D01*
X118671423Y-71117498D01*
X118736324Y-71331446D01*
X118736325Y-71331447D01*
X118841717Y-71528623D01*
X118983552Y-71701449D01*
X119026860Y-71736991D01*
X119511797Y-72221928D01*
X118580000Y-72221928D01*
X118455518Y-72234188D01*
X118335820Y-72270498D01*
X118225506Y-72329463D01*
X118128815Y-72408815D01*
X118049463Y-72505506D01*
X117990498Y-72615820D01*
X117954188Y-72735518D01*
X117941928Y-72860000D01*
X117941928Y-74460000D01*
X117954188Y-74584482D01*
X117990498Y-74704180D01*
X118049463Y-74814494D01*
X118128815Y-74911185D01*
X118225506Y-74990537D01*
X118335820Y-75049502D01*
X118455518Y-75085812D01*
X118463961Y-75086643D01*
X118265363Y-75285241D01*
X118108320Y-75520273D01*
X118000147Y-75781426D01*
X117945000Y-76058665D01*
X117945000Y-76341335D01*
X118000147Y-76618574D01*
X118108320Y-76879727D01*
X118265363Y-77114759D01*
X118465241Y-77314637D01*
X118697759Y-77470000D01*
X118465241Y-77625363D01*
X118265363Y-77825241D01*
X118108320Y-78060273D01*
X118000147Y-78321426D01*
X117945000Y-78598665D01*
X117945000Y-78881335D01*
X118000147Y-79158574D01*
X118108320Y-79419727D01*
X118265363Y-79654759D01*
X118465241Y-79854637D01*
X118700273Y-80011680D01*
X118710865Y-80016067D01*
X118524869Y-80127615D01*
X118316481Y-80316586D01*
X118148963Y-80542580D01*
X118028754Y-80796913D01*
X117988096Y-80930961D01*
X118110085Y-81153000D01*
X119253000Y-81153000D01*
X119253000Y-81133000D01*
X119507000Y-81133000D01*
X119507000Y-81153000D01*
X120649915Y-81153000D01*
X120771904Y-80930961D01*
X120731246Y-80796913D01*
X120611037Y-80542580D01*
X120443519Y-80316586D01*
X120235131Y-80127615D01*
X120049135Y-80016067D01*
X120059727Y-80011680D01*
X120294759Y-79854637D01*
X120494637Y-79654759D01*
X120651680Y-79419727D01*
X120759853Y-79158574D01*
X120815000Y-78881335D01*
X120815000Y-78598665D01*
X120759853Y-78321426D01*
X120651680Y-78060273D01*
X120494637Y-77825241D01*
X120294759Y-77625363D01*
X120062241Y-77470000D01*
X120294759Y-77314637D01*
X120494637Y-77114759D01*
X120651680Y-76879727D01*
X120759853Y-76618574D01*
X120815000Y-76341335D01*
X120815000Y-76058665D01*
X120759853Y-75781426D01*
X120651680Y-75520273D01*
X120494637Y-75285241D01*
X120296039Y-75086643D01*
X120304482Y-75085812D01*
X120424180Y-75049502D01*
X120534494Y-74990537D01*
X120631185Y-74911185D01*
X120710537Y-74814494D01*
X120769502Y-74704180D01*
X120805812Y-74584482D01*
X120818072Y-74460000D01*
X120818072Y-73528204D01*
X121622509Y-74332641D01*
X121658051Y-74375949D01*
X121830877Y-74517784D01*
X122028053Y-74623176D01*
X122192205Y-74672971D01*
X122242000Y-74688077D01*
X122262993Y-74690144D01*
X122408748Y-74704500D01*
X122408755Y-74704500D01*
X122464499Y-74709990D01*
X122520243Y-74704500D01*
X128220001Y-74704500D01*
X128220000Y-97658705D01*
X128149114Y-97696595D01*
X128014538Y-97807038D01*
X127904095Y-97941614D01*
X127822028Y-98095150D01*
X127771492Y-98261746D01*
X127754428Y-98435000D01*
X127754428Y-99685000D01*
X127771492Y-99858254D01*
X127822028Y-100024850D01*
X127904095Y-100178386D01*
X128014538Y-100312962D01*
X128035299Y-100330000D01*
X128014538Y-100347038D01*
X127904095Y-100481614D01*
X127822028Y-100635150D01*
X127771492Y-100801746D01*
X127754428Y-100975000D01*
X127754428Y-102225000D01*
X127771492Y-102398254D01*
X127822028Y-102564850D01*
X127904095Y-102718386D01*
X128014538Y-102852962D01*
X128149114Y-102963405D01*
X128220001Y-103001295D01*
X128220001Y-103026521D01*
X128215719Y-103070000D01*
X128232805Y-103243490D01*
X128283412Y-103410313D01*
X128365590Y-103564059D01*
X128448468Y-103665046D01*
X128448471Y-103665049D01*
X128476184Y-103698817D01*
X128509951Y-103726529D01*
X129464470Y-104681049D01*
X129492183Y-104714817D01*
X129525951Y-104742530D01*
X129525953Y-104742532D01*
X129591752Y-104796532D01*
X129626941Y-104825411D01*
X129780687Y-104907589D01*
X129896903Y-104942843D01*
X129947509Y-104958195D01*
X129962306Y-104959652D01*
X130077523Y-104971000D01*
X130077531Y-104971000D01*
X130121000Y-104975281D01*
X130164469Y-104971000D01*
X130551706Y-104971000D01*
X130589595Y-105041886D01*
X130700038Y-105176462D01*
X130834614Y-105286905D01*
X130988150Y-105368972D01*
X131154746Y-105419508D01*
X131328000Y-105436572D01*
X132578000Y-105436572D01*
X132751254Y-105419508D01*
X132917850Y-105368972D01*
X133071386Y-105286905D01*
X133205962Y-105176462D01*
X133316405Y-105041886D01*
X133325431Y-105025000D01*
X133485479Y-105025000D01*
X133505363Y-105054759D01*
X133705241Y-105254637D01*
X133937759Y-105410000D01*
X133705241Y-105565363D01*
X133505363Y-105765241D01*
X133355213Y-105989956D01*
X133279185Y-105897315D01*
X133182494Y-105817963D01*
X133072180Y-105758998D01*
X132952482Y-105722688D01*
X132828000Y-105710428D01*
X132238750Y-105713500D01*
X132080000Y-105872250D01*
X132080000Y-106934000D01*
X132100000Y-106934000D01*
X132100000Y-107188000D01*
X132080000Y-107188000D01*
X132080000Y-108249750D01*
X132238750Y-108408500D01*
X132828000Y-108411572D01*
X132952482Y-108399312D01*
X133072180Y-108363002D01*
X133182494Y-108304037D01*
X133279185Y-108224685D01*
X133358537Y-108127994D01*
X133417502Y-108017680D01*
X133453812Y-107897982D01*
X133466072Y-107773500D01*
X133464343Y-107533369D01*
X133505363Y-107594759D01*
X133705241Y-107794637D01*
X133937759Y-107950000D01*
X133705241Y-108105363D01*
X133505363Y-108305241D01*
X133348320Y-108540273D01*
X133240147Y-108801426D01*
X133185000Y-109078665D01*
X133185000Y-109361335D01*
X133240147Y-109638574D01*
X133348320Y-109899727D01*
X133505363Y-110134759D01*
X133705241Y-110334637D01*
X133940273Y-110491680D01*
X133941046Y-110492000D01*
X125917802Y-110492000D01*
X124953206Y-109527405D01*
X125002502Y-109435180D01*
X125038812Y-109315482D01*
X125051072Y-109191000D01*
X125051072Y-108741000D01*
X125038812Y-108616518D01*
X125002502Y-108496820D01*
X124943537Y-108386506D01*
X124864185Y-108289815D01*
X124767494Y-108210463D01*
X124657180Y-108151498D01*
X124537482Y-108115188D01*
X124413000Y-108102928D01*
X123713000Y-108102928D01*
X123588518Y-108115188D01*
X123468820Y-108151498D01*
X123358506Y-108210463D01*
X123261815Y-108289815D01*
X123182463Y-108386506D01*
X123123498Y-108496820D01*
X123087188Y-108616518D01*
X123074928Y-108741000D01*
X123074928Y-109191000D01*
X123087188Y-109315482D01*
X123123498Y-109435180D01*
X123182463Y-109545494D01*
X123261815Y-109642185D01*
X123302881Y-109675887D01*
X123299324Y-109712000D01*
X123303000Y-109749322D01*
X123303000Y-109749333D01*
X123313997Y-109860986D01*
X123342317Y-109954345D01*
X123357454Y-110004246D01*
X123428026Y-110136276D01*
X123486896Y-110208008D01*
X123523000Y-110252001D01*
X123551998Y-110275799D01*
X124503198Y-111227000D01*
X117500000Y-111227000D01*
X117500000Y-83678665D01*
X117945000Y-83678665D01*
X117945000Y-83961335D01*
X118000147Y-84238574D01*
X118108320Y-84499727D01*
X118265363Y-84734759D01*
X118465241Y-84934637D01*
X118697759Y-85090000D01*
X118465241Y-85245363D01*
X118265363Y-85445241D01*
X118108320Y-85680273D01*
X118000147Y-85941426D01*
X117945000Y-86218665D01*
X117945000Y-86501335D01*
X118000147Y-86778574D01*
X118108320Y-87039727D01*
X118265363Y-87274759D01*
X118465241Y-87474637D01*
X118697759Y-87630000D01*
X118465241Y-87785363D01*
X118265363Y-87985241D01*
X118108320Y-88220273D01*
X118000147Y-88481426D01*
X117945000Y-88758665D01*
X117945000Y-89041335D01*
X118000147Y-89318574D01*
X118108320Y-89579727D01*
X118265363Y-89814759D01*
X118465241Y-90014637D01*
X118697759Y-90170000D01*
X118465241Y-90325363D01*
X118265363Y-90525241D01*
X118108320Y-90760273D01*
X118000147Y-91021426D01*
X117945000Y-91298665D01*
X117945000Y-91581335D01*
X118000147Y-91858574D01*
X118108320Y-92119727D01*
X118265363Y-92354759D01*
X118465241Y-92554637D01*
X118697759Y-92710000D01*
X118465241Y-92865363D01*
X118265363Y-93065241D01*
X118108320Y-93300273D01*
X118000147Y-93561426D01*
X117945000Y-93838665D01*
X117945000Y-94121335D01*
X118000147Y-94398574D01*
X118108320Y-94659727D01*
X118265363Y-94894759D01*
X118465241Y-95094637D01*
X118697759Y-95250000D01*
X118465241Y-95405363D01*
X118265363Y-95605241D01*
X118108320Y-95840273D01*
X118000147Y-96101426D01*
X117945000Y-96378665D01*
X117945000Y-96661335D01*
X118000147Y-96938574D01*
X118108320Y-97199727D01*
X118265363Y-97434759D01*
X118465241Y-97634637D01*
X118697759Y-97790000D01*
X118465241Y-97945363D01*
X118265363Y-98145241D01*
X118108320Y-98380273D01*
X118000147Y-98641426D01*
X117945000Y-98918665D01*
X117945000Y-99201335D01*
X118000147Y-99478574D01*
X118108320Y-99739727D01*
X118265363Y-99974759D01*
X118465241Y-100174637D01*
X118697759Y-100330000D01*
X118465241Y-100485363D01*
X118265363Y-100685241D01*
X118108320Y-100920273D01*
X118000147Y-101181426D01*
X117945000Y-101458665D01*
X117945000Y-101741335D01*
X118000147Y-102018574D01*
X118108320Y-102279727D01*
X118265363Y-102514759D01*
X118465241Y-102714637D01*
X118697759Y-102870000D01*
X118465241Y-103025363D01*
X118265363Y-103225241D01*
X118108320Y-103460273D01*
X118000147Y-103721426D01*
X117945000Y-103998665D01*
X117945000Y-104281335D01*
X118000147Y-104558574D01*
X118108320Y-104819727D01*
X118265363Y-105054759D01*
X118465241Y-105254637D01*
X118697759Y-105410000D01*
X118465241Y-105565363D01*
X118265363Y-105765241D01*
X118108320Y-106000273D01*
X118000147Y-106261426D01*
X117945000Y-106538665D01*
X117945000Y-106821335D01*
X118000147Y-107098574D01*
X118108320Y-107359727D01*
X118265363Y-107594759D01*
X118465241Y-107794637D01*
X118697759Y-107950000D01*
X118465241Y-108105363D01*
X118265363Y-108305241D01*
X118108320Y-108540273D01*
X118000147Y-108801426D01*
X117945000Y-109078665D01*
X117945000Y-109361335D01*
X118000147Y-109638574D01*
X118108320Y-109899727D01*
X118265363Y-110134759D01*
X118465241Y-110334637D01*
X118700273Y-110491680D01*
X118961426Y-110599853D01*
X119238665Y-110655000D01*
X119521335Y-110655000D01*
X119798574Y-110599853D01*
X120059727Y-110491680D01*
X120294759Y-110334637D01*
X120494637Y-110134759D01*
X120651680Y-109899727D01*
X120662854Y-109872750D01*
X121078000Y-109872750D01*
X121090325Y-109980326D01*
X121129471Y-110099127D01*
X121191041Y-110208008D01*
X121272670Y-110302785D01*
X121371220Y-110379816D01*
X121482905Y-110436141D01*
X121603433Y-110469594D01*
X121728171Y-110478892D01*
X121777250Y-110476000D01*
X121936000Y-110317250D01*
X121936000Y-109714000D01*
X122190000Y-109714000D01*
X122190000Y-110317250D01*
X122348750Y-110476000D01*
X122397829Y-110478892D01*
X122522567Y-110469594D01*
X122643095Y-110436141D01*
X122754780Y-110379816D01*
X122853330Y-110302785D01*
X122934959Y-110208008D01*
X122996529Y-110099127D01*
X123035675Y-109980326D01*
X123048000Y-109872750D01*
X122889250Y-109714000D01*
X122190000Y-109714000D01*
X121936000Y-109714000D01*
X121236750Y-109714000D01*
X121078000Y-109872750D01*
X120662854Y-109872750D01*
X120759853Y-109638574D01*
X120815000Y-109361335D01*
X120815000Y-109078665D01*
X120759853Y-108801426D01*
X120651680Y-108540273D01*
X120494637Y-108305241D01*
X120294759Y-108105363D01*
X120062241Y-107950000D01*
X120294759Y-107794637D01*
X120494637Y-107594759D01*
X120651680Y-107359727D01*
X120759853Y-107098574D01*
X120815000Y-106821335D01*
X120815000Y-106538665D01*
X120759853Y-106261426D01*
X120651680Y-106000273D01*
X120494637Y-105765241D01*
X120294759Y-105565363D01*
X120062241Y-105410000D01*
X120103397Y-105382500D01*
X120914928Y-105382500D01*
X120914928Y-106307500D01*
X120931992Y-106480754D01*
X120982528Y-106647350D01*
X121064595Y-106800886D01*
X121175038Y-106935462D01*
X121303001Y-107040478D01*
X121303000Y-107606015D01*
X121261815Y-107639815D01*
X121182463Y-107736506D01*
X121123498Y-107846820D01*
X121087188Y-107966518D01*
X121074928Y-108091000D01*
X121074928Y-108541000D01*
X121087188Y-108665482D01*
X121123498Y-108785180D01*
X121182463Y-108895494D01*
X121240649Y-108966394D01*
X121191041Y-109023992D01*
X121129471Y-109132873D01*
X121090325Y-109251674D01*
X121078000Y-109359250D01*
X121236750Y-109518000D01*
X121936000Y-109518000D01*
X121936000Y-109469000D01*
X122190000Y-109469000D01*
X122190000Y-109518000D01*
X122889250Y-109518000D01*
X123048000Y-109359250D01*
X123035675Y-109251674D01*
X122996529Y-109132873D01*
X122934959Y-109023992D01*
X122885351Y-108966394D01*
X122943537Y-108895494D01*
X123002502Y-108785180D01*
X123038812Y-108665482D01*
X123051072Y-108541000D01*
X123051072Y-108091000D01*
X123038812Y-107966518D01*
X123002502Y-107846820D01*
X122963312Y-107773500D01*
X130439928Y-107773500D01*
X130452188Y-107897982D01*
X130488498Y-108017680D01*
X130547463Y-108127994D01*
X130626815Y-108224685D01*
X130723506Y-108304037D01*
X130833820Y-108363002D01*
X130953518Y-108399312D01*
X131078000Y-108411572D01*
X131667250Y-108408500D01*
X131826000Y-108249750D01*
X131826000Y-107188000D01*
X130601750Y-107188000D01*
X130443000Y-107346750D01*
X130439928Y-107773500D01*
X122963312Y-107773500D01*
X122943537Y-107736506D01*
X122864185Y-107639815D01*
X122823000Y-107606015D01*
X122823000Y-107195572D01*
X123053000Y-107195572D01*
X123226254Y-107178508D01*
X123392850Y-107127972D01*
X123546386Y-107045905D01*
X123680962Y-106935462D01*
X123791405Y-106800886D01*
X123873472Y-106647350D01*
X123924008Y-106480754D01*
X123937033Y-106348500D01*
X130439928Y-106348500D01*
X130443000Y-106775250D01*
X130601750Y-106934000D01*
X131826000Y-106934000D01*
X131826000Y-105872250D01*
X131667250Y-105713500D01*
X131078000Y-105710428D01*
X130953518Y-105722688D01*
X130833820Y-105758998D01*
X130723506Y-105817963D01*
X130626815Y-105897315D01*
X130547463Y-105994006D01*
X130488498Y-106104320D01*
X130452188Y-106224018D01*
X130439928Y-106348500D01*
X123937033Y-106348500D01*
X123941072Y-106307500D01*
X123941072Y-105382500D01*
X123924008Y-105209246D01*
X123873472Y-105042650D01*
X123791405Y-104889114D01*
X123680962Y-104754538D01*
X123546386Y-104644095D01*
X123392850Y-104562028D01*
X123226254Y-104511492D01*
X123053000Y-104494428D01*
X121803000Y-104494428D01*
X121629746Y-104511492D01*
X121463150Y-104562028D01*
X121309614Y-104644095D01*
X121175038Y-104754538D01*
X121064595Y-104889114D01*
X120982528Y-105042650D01*
X120931992Y-105209246D01*
X120914928Y-105382500D01*
X120103397Y-105382500D01*
X120294759Y-105254637D01*
X120494637Y-105054759D01*
X120651680Y-104819727D01*
X120759853Y-104558574D01*
X120815000Y-104281335D01*
X120815000Y-103998665D01*
X120759853Y-103721426D01*
X120651680Y-103460273D01*
X120494637Y-103225241D01*
X120294759Y-103025363D01*
X120062241Y-102870000D01*
X120294759Y-102714637D01*
X120494637Y-102514759D01*
X120651680Y-102279727D01*
X120759853Y-102018574D01*
X120815000Y-101741335D01*
X120815000Y-101458665D01*
X120759853Y-101181426D01*
X120651680Y-100920273D01*
X120494637Y-100685241D01*
X120294759Y-100485363D01*
X120062241Y-100330000D01*
X120294759Y-100174637D01*
X120494637Y-99974759D01*
X120598043Y-99820000D01*
X120843199Y-99820000D01*
X121668001Y-100644803D01*
X121668001Y-101532724D01*
X121629746Y-101536492D01*
X121463150Y-101587028D01*
X121309614Y-101669095D01*
X121175038Y-101779538D01*
X121064595Y-101914114D01*
X120982528Y-102067650D01*
X120931992Y-102234246D01*
X120914928Y-102407500D01*
X120914928Y-103332500D01*
X120931992Y-103505754D01*
X120982528Y-103672350D01*
X121064595Y-103825886D01*
X121175038Y-103960462D01*
X121309614Y-104070905D01*
X121463150Y-104152972D01*
X121629746Y-104203508D01*
X121803000Y-104220572D01*
X123053000Y-104220572D01*
X123226254Y-104203508D01*
X123392850Y-104152972D01*
X123546386Y-104070905D01*
X123680962Y-103960462D01*
X123791405Y-103825886D01*
X123873472Y-103672350D01*
X123924008Y-103505754D01*
X123941072Y-103332500D01*
X123941072Y-102407500D01*
X123924008Y-102234246D01*
X123873472Y-102067650D01*
X123791405Y-101914114D01*
X123680962Y-101779538D01*
X123546386Y-101669095D01*
X123392850Y-101587028D01*
X123226254Y-101536492D01*
X123188000Y-101532724D01*
X123188000Y-100367322D01*
X123191676Y-100329999D01*
X123188000Y-100292676D01*
X123188000Y-100292667D01*
X123177003Y-100181014D01*
X123133546Y-100037753D01*
X123062974Y-99905724D01*
X122968001Y-99789999D01*
X122939003Y-99766201D01*
X121721804Y-98549003D01*
X121698001Y-98519999D01*
X121582276Y-98425026D01*
X121450247Y-98354454D01*
X121306986Y-98310997D01*
X121195333Y-98300000D01*
X121195322Y-98300000D01*
X121158000Y-98296324D01*
X121120678Y-98300000D01*
X120598043Y-98300000D01*
X120494637Y-98145241D01*
X120294759Y-97945363D01*
X120062241Y-97790000D01*
X120294759Y-97634637D01*
X120494637Y-97434759D01*
X120651680Y-97199727D01*
X120759853Y-96938574D01*
X120815000Y-96661335D01*
X120815000Y-96378665D01*
X120759853Y-96101426D01*
X120651680Y-95840273D01*
X120494637Y-95605241D01*
X120294759Y-95405363D01*
X120062241Y-95250000D01*
X120294759Y-95094637D01*
X120494637Y-94894759D01*
X120651680Y-94659727D01*
X120759853Y-94398574D01*
X120815000Y-94121335D01*
X120815000Y-93838665D01*
X120759853Y-93561426D01*
X120651680Y-93300273D01*
X120494637Y-93065241D01*
X120294759Y-92865363D01*
X120062241Y-92710000D01*
X120294759Y-92554637D01*
X120494637Y-92354759D01*
X120651680Y-92119727D01*
X120759853Y-91858574D01*
X120815000Y-91581335D01*
X120815000Y-91298665D01*
X120759853Y-91021426D01*
X120651680Y-90760273D01*
X120494637Y-90525241D01*
X120294759Y-90325363D01*
X120062241Y-90170000D01*
X120294759Y-90014637D01*
X120494637Y-89814759D01*
X120651680Y-89579727D01*
X120759853Y-89318574D01*
X120815000Y-89041335D01*
X120815000Y-88758665D01*
X120759853Y-88481426D01*
X120651680Y-88220273D01*
X120494637Y-87985241D01*
X120294759Y-87785363D01*
X120062241Y-87630000D01*
X120294759Y-87474637D01*
X120494637Y-87274759D01*
X120651680Y-87039727D01*
X120759853Y-86778574D01*
X120815000Y-86501335D01*
X120815000Y-86218665D01*
X120759853Y-85941426D01*
X120651680Y-85680273D01*
X120494637Y-85445241D01*
X120294759Y-85245363D01*
X120062241Y-85090000D01*
X120294759Y-84934637D01*
X120494637Y-84734759D01*
X120651680Y-84499727D01*
X120759853Y-84238574D01*
X120815000Y-83961335D01*
X120815000Y-83678665D01*
X120759853Y-83401426D01*
X120651680Y-83140273D01*
X120494637Y-82905241D01*
X120294759Y-82705363D01*
X120059727Y-82548320D01*
X120049135Y-82543933D01*
X120235131Y-82432385D01*
X120443519Y-82243414D01*
X120611037Y-82017420D01*
X120731246Y-81763087D01*
X120771904Y-81629039D01*
X120649915Y-81407000D01*
X119507000Y-81407000D01*
X119507000Y-81427000D01*
X119253000Y-81427000D01*
X119253000Y-81407000D01*
X118110085Y-81407000D01*
X117988096Y-81629039D01*
X118028754Y-81763087D01*
X118148963Y-82017420D01*
X118316481Y-82243414D01*
X118524869Y-82432385D01*
X118710865Y-82543933D01*
X118700273Y-82548320D01*
X118465241Y-82705363D01*
X118265363Y-82905241D01*
X118108320Y-83140273D01*
X118000147Y-83401426D01*
X117945000Y-83678665D01*
X117500000Y-83678665D01*
X117500000Y-62415010D01*
X117545820Y-62439502D01*
X117665518Y-62475812D01*
X117790000Y-62488072D01*
X122904250Y-62485000D01*
X123063000Y-62326250D01*
X123063000Y-57277000D01*
X123043000Y-57277000D01*
X123043000Y-57023000D01*
X123063000Y-57023000D01*
X123063000Y-51973750D01*
X123317000Y-51973750D01*
X123317000Y-57023000D01*
X123337000Y-57023000D01*
X123337000Y-57277000D01*
X123317000Y-57277000D01*
X123317000Y-62326250D01*
X123475750Y-62485000D01*
X128590000Y-62488072D01*
X128714482Y-62475812D01*
X128834180Y-62439502D01*
X128944494Y-62380537D01*
X129041185Y-62301185D01*
X129120537Y-62204494D01*
X129179502Y-62094180D01*
X129215812Y-61974482D01*
X129228072Y-61850000D01*
X129226987Y-60290514D01*
X129291595Y-60411387D01*
X129402038Y-60545962D01*
X129536613Y-60656405D01*
X129570000Y-60674251D01*
X129570001Y-63466239D01*
X129564509Y-63522000D01*
X129586423Y-63744498D01*
X129651324Y-63958446D01*
X129651325Y-63958447D01*
X129756717Y-64155623D01*
X129898552Y-64328449D01*
X129941860Y-64363991D01*
X130474868Y-64897000D01*
X130206868Y-65165000D01*
X127778072Y-65165000D01*
X127778072Y-64000000D01*
X127765812Y-63875518D01*
X127729502Y-63755820D01*
X127670537Y-63645506D01*
X127591185Y-63548815D01*
X127494494Y-63469463D01*
X127384180Y-63410498D01*
X127264482Y-63374188D01*
X127140000Y-63361928D01*
X126040000Y-63361928D01*
X125915518Y-63374188D01*
X125795820Y-63410498D01*
X125740000Y-63440335D01*
X125684180Y-63410498D01*
X125564482Y-63374188D01*
X125440000Y-63361928D01*
X124340000Y-63361928D01*
X124215518Y-63374188D01*
X124095820Y-63410498D01*
X124040000Y-63440335D01*
X123984180Y-63410498D01*
X123864482Y-63374188D01*
X123740000Y-63361928D01*
X123475750Y-63365000D01*
X123317000Y-63523750D01*
X123317000Y-66173000D01*
X123337000Y-66173000D01*
X123337000Y-66427000D01*
X123317000Y-66427000D01*
X123317000Y-69076250D01*
X123475750Y-69235000D01*
X123740000Y-69238072D01*
X123864482Y-69225812D01*
X123984180Y-69189502D01*
X124040000Y-69159665D01*
X124095820Y-69189502D01*
X124215518Y-69225812D01*
X124340000Y-69238072D01*
X125440000Y-69238072D01*
X125564482Y-69225812D01*
X125684180Y-69189502D01*
X125740000Y-69159665D01*
X125795820Y-69189502D01*
X125915518Y-69225812D01*
X126040000Y-69238072D01*
X127140000Y-69238072D01*
X127264482Y-69225812D01*
X127384180Y-69189502D01*
X127494494Y-69130537D01*
X127591185Y-69051185D01*
X127670537Y-68954494D01*
X127729502Y-68844180D01*
X127765812Y-68724482D01*
X127778072Y-68600000D01*
X127778072Y-67435000D01*
X130621249Y-67435000D01*
X130677000Y-67440491D01*
X130732751Y-67435000D01*
X130732752Y-67435000D01*
X130899499Y-67418577D01*
X131113447Y-67353676D01*
X131310623Y-67248284D01*
X131483449Y-67106449D01*
X131518995Y-67063136D01*
X132247060Y-66335072D01*
X132880000Y-66335072D01*
X133004482Y-66322812D01*
X133124180Y-66286502D01*
X133234494Y-66227537D01*
X133331185Y-66148185D01*
X133410537Y-66051494D01*
X133469502Y-65941180D01*
X133485117Y-65889702D01*
X135066903Y-65889702D01*
X135138486Y-66133671D01*
X135393996Y-66254571D01*
X135668184Y-66323300D01*
X135950512Y-66337217D01*
X136230130Y-66295787D01*
X136496292Y-66200603D01*
X136621514Y-66133671D01*
X136693097Y-65889702D01*
X135880000Y-65076605D01*
X135066903Y-65889702D01*
X133485117Y-65889702D01*
X133505812Y-65821482D01*
X133518072Y-65697000D01*
X133518072Y-64967512D01*
X134439783Y-64967512D01*
X134481213Y-65247130D01*
X134576397Y-65513292D01*
X134643329Y-65638514D01*
X134887298Y-65710097D01*
X135700395Y-64897000D01*
X136059605Y-64897000D01*
X136872702Y-65710097D01*
X137116671Y-65638514D01*
X137237571Y-65383004D01*
X137306300Y-65108816D01*
X137320217Y-64826488D01*
X137278787Y-64546870D01*
X137183603Y-64280708D01*
X137116671Y-64155486D01*
X136872702Y-64083903D01*
X136059605Y-64897000D01*
X135700395Y-64897000D01*
X134887298Y-64083903D01*
X134643329Y-64155486D01*
X134522429Y-64410996D01*
X134453700Y-64685184D01*
X134439783Y-64967512D01*
X133518072Y-64967512D01*
X133518072Y-64097000D01*
X133505812Y-63972518D01*
X133485118Y-63904298D01*
X135066903Y-63904298D01*
X135880000Y-64717395D01*
X136693097Y-63904298D01*
X136621514Y-63660329D01*
X136366004Y-63539429D01*
X136091816Y-63470700D01*
X135809488Y-63456783D01*
X135529870Y-63498213D01*
X135263708Y-63593397D01*
X135138486Y-63660329D01*
X135066903Y-63904298D01*
X133485118Y-63904298D01*
X133469502Y-63852820D01*
X133410537Y-63742506D01*
X133331185Y-63645815D01*
X133234494Y-63566463D01*
X133124180Y-63507498D01*
X133004482Y-63471188D01*
X132880000Y-63458928D01*
X132247060Y-63458928D01*
X131840000Y-63051868D01*
X131840000Y-60674251D01*
X131873387Y-60656405D01*
X132007962Y-60545962D01*
X132118405Y-60411387D01*
X132200472Y-60257851D01*
X132251008Y-60091255D01*
X132268072Y-59918001D01*
X132268072Y-56667999D01*
X132251008Y-56494745D01*
X132200472Y-56328149D01*
X132118405Y-56174613D01*
X132007962Y-56040038D01*
X131873387Y-55929595D01*
X131719851Y-55847528D01*
X131553255Y-55796992D01*
X131380001Y-55779928D01*
X130029999Y-55779928D01*
X129856745Y-55796992D01*
X129690149Y-55847528D01*
X129536613Y-55929595D01*
X129402038Y-56040038D01*
X129291595Y-56174613D01*
X129225394Y-56298466D01*
X129226762Y-54331891D01*
X129876519Y-54331891D01*
X129973843Y-54606252D01*
X130122822Y-54856355D01*
X130317731Y-55072588D01*
X130551080Y-55246641D01*
X130813901Y-55371825D01*
X130961110Y-55416476D01*
X131191000Y-55295155D01*
X131191000Y-54102000D01*
X129997186Y-54102000D01*
X129876519Y-54331891D01*
X129226762Y-54331891D01*
X129227258Y-53618109D01*
X129876519Y-53618109D01*
X129997186Y-53848000D01*
X131191000Y-53848000D01*
X131191000Y-52654845D01*
X131445000Y-52654845D01*
X131445000Y-53848000D01*
X131465000Y-53848000D01*
X131465000Y-54102000D01*
X131445000Y-54102000D01*
X131445000Y-55295155D01*
X131674890Y-55416476D01*
X131822099Y-55371825D01*
X132084920Y-55246641D01*
X132318269Y-55072588D01*
X132394034Y-54988534D01*
X132418498Y-55069180D01*
X132477463Y-55179494D01*
X132556815Y-55276185D01*
X132653506Y-55355537D01*
X132763820Y-55414502D01*
X132883518Y-55450812D01*
X133008000Y-55463072D01*
X133740941Y-55463072D01*
X134120001Y-55842133D01*
X134120001Y-55911749D01*
X134086613Y-55929595D01*
X133952038Y-56040038D01*
X133841595Y-56174613D01*
X133759528Y-56328149D01*
X133708992Y-56494745D01*
X133691928Y-56667999D01*
X133691928Y-59918001D01*
X133708992Y-60091255D01*
X133759528Y-60257851D01*
X133841595Y-60411387D01*
X133952038Y-60545962D01*
X134086613Y-60656405D01*
X134240149Y-60738472D01*
X134406745Y-60789008D01*
X134579999Y-60806072D01*
X135930001Y-60806072D01*
X136103255Y-60789008D01*
X136269851Y-60738472D01*
X136423387Y-60656405D01*
X136557962Y-60545962D01*
X136668405Y-60411387D01*
X136750472Y-60257851D01*
X136801008Y-60091255D01*
X136818072Y-59918001D01*
X136818072Y-56667999D01*
X136801008Y-56494745D01*
X136750472Y-56328149D01*
X136668405Y-56174613D01*
X136557962Y-56040038D01*
X136423387Y-55929595D01*
X136390000Y-55911749D01*
X136390000Y-55427741D01*
X136395490Y-55371999D01*
X136390000Y-55316257D01*
X136390000Y-55316248D01*
X136373577Y-55149501D01*
X136308676Y-54935553D01*
X136203284Y-54738377D01*
X136061449Y-54565551D01*
X136018140Y-54530008D01*
X135346072Y-53857941D01*
X135346072Y-53125000D01*
X135333812Y-53000518D01*
X135297502Y-52880820D01*
X135238537Y-52770506D01*
X135159185Y-52673815D01*
X135062494Y-52594463D01*
X134952180Y-52535498D01*
X134832482Y-52499188D01*
X134708000Y-52486928D01*
X133008000Y-52486928D01*
X132883518Y-52499188D01*
X132763820Y-52535498D01*
X132653506Y-52594463D01*
X132556815Y-52673815D01*
X132477463Y-52770506D01*
X132418498Y-52880820D01*
X132394034Y-52961466D01*
X132318269Y-52877412D01*
X132084920Y-52703359D01*
X131822099Y-52578175D01*
X131674890Y-52533524D01*
X131445000Y-52654845D01*
X131191000Y-52654845D01*
X130961110Y-52533524D01*
X130813901Y-52578175D01*
X130551080Y-52703359D01*
X130317731Y-52877412D01*
X130122822Y-53093645D01*
X129973843Y-53343748D01*
X129876519Y-53618109D01*
X129227258Y-53618109D01*
X129228072Y-52450000D01*
X129215812Y-52325518D01*
X129179502Y-52205820D01*
X129120537Y-52095506D01*
X129041185Y-51998815D01*
X128944494Y-51919463D01*
X128834180Y-51860498D01*
X128714482Y-51824188D01*
X128590000Y-51811928D01*
X123475750Y-51815000D01*
X123317000Y-51973750D01*
X123063000Y-51973750D01*
X122904250Y-51815000D01*
X117790000Y-51811928D01*
X117665518Y-51824188D01*
X117545820Y-51860498D01*
X117500000Y-51884990D01*
X117500000Y-51460000D01*
X139040000Y-51460000D01*
X139040001Y-95423655D01*
G37*
G04 #@! TD.AperFunction*
M02*
