G04 #@! TF.GenerationSoftware,KiCad,Pcbnew,(5.1.9)-1*
G04 #@! TF.CreationDate,2021-02-27T14:39:48+01:00*
G04 #@! TF.ProjectId,SteeringWheelInterface,53746565-7269-46e6-9757-6865656c496e,rev?*
G04 #@! TF.SameCoordinates,Original*
G04 #@! TF.FileFunction,Legend,Bot*
G04 #@! TF.FilePolarity,Positive*
%FSLAX46Y46*%
G04 Gerber Fmt 4.6, Leading zero omitted, Abs format (unit mm)*
G04 Created by KiCad (PCBNEW (5.1.9)-1) date 2021-02-27 14:39:48*
%MOMM*%
%LPD*%
G01*
G04 APERTURE LIST*
%ADD10C,0.150000*%
%ADD11C,0.120000*%
G04 APERTURE END LIST*
D10*
X124372476Y-85113761D02*
X124229619Y-85161380D01*
X123991523Y-85161380D01*
X123896285Y-85113761D01*
X123848666Y-85066142D01*
X123801047Y-84970904D01*
X123801047Y-84875666D01*
X123848666Y-84780428D01*
X123896285Y-84732809D01*
X123991523Y-84685190D01*
X124182000Y-84637571D01*
X124277238Y-84589952D01*
X124324857Y-84542333D01*
X124372476Y-84447095D01*
X124372476Y-84351857D01*
X124324857Y-84256619D01*
X124277238Y-84209000D01*
X124182000Y-84161380D01*
X123943904Y-84161380D01*
X123801047Y-84209000D01*
X123372476Y-84637571D02*
X123039142Y-84637571D01*
X122896285Y-85161380D02*
X123372476Y-85161380D01*
X123372476Y-84161380D01*
X122896285Y-84161380D01*
X122467714Y-84637571D02*
X122134380Y-84637571D01*
X121991523Y-85161380D02*
X122467714Y-85161380D01*
X122467714Y-84161380D01*
X121991523Y-84161380D01*
X121562952Y-85161380D02*
X121562952Y-84161380D01*
X120991523Y-85161380D02*
X121420095Y-84589952D01*
X120991523Y-84161380D02*
X121562952Y-84732809D01*
X129682523Y-74509380D02*
X129349190Y-75509380D01*
X129015857Y-74509380D01*
X128492047Y-74509380D02*
X128301571Y-74509380D01*
X128206333Y-74557000D01*
X128111095Y-74652238D01*
X128063476Y-74842714D01*
X128063476Y-75176047D01*
X128111095Y-75366523D01*
X128206333Y-75461761D01*
X128301571Y-75509380D01*
X128492047Y-75509380D01*
X128587285Y-75461761D01*
X128682523Y-75366523D01*
X128730142Y-75176047D01*
X128730142Y-74842714D01*
X128682523Y-74652238D01*
X128587285Y-74557000D01*
X128492047Y-74509380D01*
X127158714Y-75509380D02*
X127634904Y-75509380D01*
X127634904Y-74509380D01*
X126825380Y-74509380D02*
X126825380Y-75318904D01*
X126777761Y-75414142D01*
X126730142Y-75461761D01*
X126634904Y-75509380D01*
X126444428Y-75509380D01*
X126349190Y-75461761D01*
X126301571Y-75414142D01*
X126253952Y-75318904D01*
X126253952Y-74509380D01*
X125777761Y-75509380D02*
X125777761Y-74509380D01*
X125444428Y-75223666D01*
X125111095Y-74509380D01*
X125111095Y-75509380D01*
X124634904Y-74985571D02*
X124301571Y-74985571D01*
X124158714Y-75509380D02*
X124634904Y-75509380D01*
X124634904Y-74509380D01*
X124158714Y-74509380D01*
X124491523Y-94178380D02*
X124491523Y-93178380D01*
X124158190Y-93892666D01*
X123824857Y-93178380D01*
X123824857Y-94178380D01*
X123158190Y-93178380D02*
X122967714Y-93178380D01*
X122872476Y-93226000D01*
X122777238Y-93321238D01*
X122729619Y-93511714D01*
X122729619Y-93845047D01*
X122777238Y-94035523D01*
X122872476Y-94130761D01*
X122967714Y-94178380D01*
X123158190Y-94178380D01*
X123253428Y-94130761D01*
X123348666Y-94035523D01*
X123396285Y-93845047D01*
X123396285Y-93511714D01*
X123348666Y-93321238D01*
X123253428Y-93226000D01*
X123158190Y-93178380D01*
X122301047Y-94178380D02*
X122301047Y-93178380D01*
X122062952Y-93178380D01*
X121920095Y-93226000D01*
X121824857Y-93321238D01*
X121777238Y-93416476D01*
X121729619Y-93606952D01*
X121729619Y-93749809D01*
X121777238Y-93940285D01*
X121824857Y-94035523D01*
X121920095Y-94130761D01*
X122062952Y-94178380D01*
X122301047Y-94178380D01*
X121301047Y-93654571D02*
X120967714Y-93654571D01*
X120824857Y-94178380D02*
X121301047Y-94178380D01*
X121301047Y-93178380D01*
X120824857Y-93178380D01*
X124483714Y-85685380D02*
X124483714Y-86494904D01*
X124436095Y-86590142D01*
X124388476Y-86637761D01*
X124293238Y-86685380D01*
X124102761Y-86685380D01*
X124007523Y-86637761D01*
X123959904Y-86590142D01*
X123912285Y-86494904D01*
X123912285Y-85685380D01*
X123436095Y-86685380D02*
X123436095Y-85685380D01*
X123055142Y-85685380D01*
X122959904Y-85733000D01*
X122912285Y-85780619D01*
X122864666Y-85875857D01*
X122864666Y-86018714D01*
X122912285Y-86113952D01*
X122959904Y-86161571D01*
X123055142Y-86209190D01*
X123436095Y-86209190D01*
X124483714Y-76668380D02*
X124483714Y-77477904D01*
X124436095Y-77573142D01*
X124388476Y-77620761D01*
X124293238Y-77668380D01*
X124102761Y-77668380D01*
X124007523Y-77620761D01*
X123959904Y-77573142D01*
X123912285Y-77477904D01*
X123912285Y-76668380D01*
X123436095Y-77668380D02*
X123436095Y-76668380D01*
X123055142Y-76668380D01*
X122959904Y-76716000D01*
X122912285Y-76763619D01*
X122864666Y-76858857D01*
X122864666Y-77001714D01*
X122912285Y-77096952D01*
X122959904Y-77144571D01*
X123055142Y-77192190D01*
X123436095Y-77192190D01*
X133325952Y-77668380D02*
X133325952Y-76668380D01*
X133087857Y-76668380D01*
X132945000Y-76716000D01*
X132849761Y-76811238D01*
X132802142Y-76906476D01*
X132754523Y-77096952D01*
X132754523Y-77239809D01*
X132802142Y-77430285D01*
X132849761Y-77525523D01*
X132945000Y-77620761D01*
X133087857Y-77668380D01*
X133325952Y-77668380D01*
X132135476Y-76668380D02*
X131945000Y-76668380D01*
X131849761Y-76716000D01*
X131754523Y-76811238D01*
X131706904Y-77001714D01*
X131706904Y-77335047D01*
X131754523Y-77525523D01*
X131849761Y-77620761D01*
X131945000Y-77668380D01*
X132135476Y-77668380D01*
X132230714Y-77620761D01*
X132325952Y-77525523D01*
X132373571Y-77335047D01*
X132373571Y-77001714D01*
X132325952Y-76811238D01*
X132230714Y-76716000D01*
X132135476Y-76668380D01*
X131373571Y-76668380D02*
X131135476Y-77668380D01*
X130945000Y-76954095D01*
X130754523Y-77668380D01*
X130516428Y-76668380D01*
X130135476Y-77668380D02*
X130135476Y-76668380D01*
X129564047Y-77668380D01*
X129564047Y-76668380D01*
X133325952Y-85923380D02*
X133325952Y-84923380D01*
X133087857Y-84923380D01*
X132945000Y-84971000D01*
X132849761Y-85066238D01*
X132802142Y-85161476D01*
X132754523Y-85351952D01*
X132754523Y-85494809D01*
X132802142Y-85685285D01*
X132849761Y-85780523D01*
X132945000Y-85875761D01*
X133087857Y-85923380D01*
X133325952Y-85923380D01*
X132135476Y-84923380D02*
X131945000Y-84923380D01*
X131849761Y-84971000D01*
X131754523Y-85066238D01*
X131706904Y-85256714D01*
X131706904Y-85590047D01*
X131754523Y-85780523D01*
X131849761Y-85875761D01*
X131945000Y-85923380D01*
X132135476Y-85923380D01*
X132230714Y-85875761D01*
X132325952Y-85780523D01*
X132373571Y-85590047D01*
X132373571Y-85256714D01*
X132325952Y-85066238D01*
X132230714Y-84971000D01*
X132135476Y-84923380D01*
X131373571Y-84923380D02*
X131135476Y-85923380D01*
X130945000Y-85209095D01*
X130754523Y-85923380D01*
X130516428Y-84923380D01*
X130135476Y-85923380D02*
X130135476Y-84923380D01*
X129564047Y-85923380D01*
X129564047Y-84923380D01*
X134183380Y-56149952D02*
X134183380Y-55578523D01*
X134183380Y-55864238D02*
X133183380Y-55864238D01*
X133326238Y-55769000D01*
X133421476Y-55673761D01*
X133469095Y-55578523D01*
X133278619Y-56530904D02*
X133231000Y-56578523D01*
X133183380Y-56673761D01*
X133183380Y-56911857D01*
X133231000Y-57007095D01*
X133278619Y-57054714D01*
X133373857Y-57102333D01*
X133469095Y-57102333D01*
X133611952Y-57054714D01*
X134183380Y-56483285D01*
X134183380Y-57102333D01*
X133183380Y-57388047D02*
X134183380Y-57721380D01*
X133183380Y-58054714D01*
X130818000Y-56007095D02*
X130770380Y-55911857D01*
X130770380Y-55769000D01*
X130818000Y-55626142D01*
X130913238Y-55530904D01*
X131008476Y-55483285D01*
X131198952Y-55435666D01*
X131341809Y-55435666D01*
X131532285Y-55483285D01*
X131627523Y-55530904D01*
X131722761Y-55626142D01*
X131770380Y-55769000D01*
X131770380Y-55864238D01*
X131722761Y-56007095D01*
X131675142Y-56054714D01*
X131341809Y-56054714D01*
X131341809Y-55864238D01*
X131770380Y-56483285D02*
X130770380Y-56483285D01*
X131770380Y-57054714D01*
X130770380Y-57054714D01*
X131770380Y-57530904D02*
X130770380Y-57530904D01*
X130770380Y-57769000D01*
X130818000Y-57911857D01*
X130913238Y-58007095D01*
X131008476Y-58054714D01*
X131198952Y-58102333D01*
X131341809Y-58102333D01*
X131532285Y-58054714D01*
X131627523Y-58007095D01*
X131722761Y-57911857D01*
X131770380Y-57769000D01*
X131770380Y-57530904D01*
D11*
X125700000Y-76016000D02*
X126000000Y-75716000D01*
X125400000Y-75716000D02*
X126000000Y-75716000D01*
X125700000Y-76016000D02*
X125400000Y-75716000D01*
X124950000Y-76216000D02*
X124950000Y-78216000D01*
X129050000Y-76216000D02*
X124950000Y-76216000D01*
X129050000Y-78216000D02*
X129050000Y-76216000D01*
X124950000Y-78216000D02*
X129050000Y-78216000D01*
X125700000Y-84271000D02*
X126000000Y-83971000D01*
X125400000Y-83971000D02*
X126000000Y-83971000D01*
X125700000Y-84271000D02*
X125400000Y-83971000D01*
X124950000Y-84471000D02*
X124950000Y-86471000D01*
X129050000Y-84471000D02*
X124950000Y-84471000D01*
X129050000Y-86471000D02*
X129050000Y-84471000D01*
X124950000Y-86471000D02*
X129050000Y-86471000D01*
X124980000Y-92726000D02*
X124980000Y-94726000D01*
X127780000Y-92726000D02*
X124980000Y-92726000D01*
X127780000Y-94726000D02*
X127780000Y-92726000D01*
X124980000Y-94726000D02*
X127780000Y-94726000D01*
X126259000Y-81972564D02*
X126259000Y-80768436D01*
X124439000Y-81972564D02*
X124439000Y-80768436D01*
X129561000Y-81972564D02*
X129561000Y-80768436D01*
X127741000Y-81972564D02*
X127741000Y-80768436D01*
X126259000Y-90137064D02*
X126259000Y-88932936D01*
X124439000Y-90137064D02*
X124439000Y-88932936D01*
X129561000Y-90137064D02*
X129561000Y-88932936D01*
X127741000Y-90137064D02*
X127741000Y-88932936D01*
X131248564Y-100690000D02*
X130044436Y-100690000D01*
X131248564Y-102510000D02*
X130044436Y-102510000D01*
X131248564Y-98150000D02*
X130044436Y-98150000D01*
X131248564Y-99970000D02*
X130044436Y-99970000D01*
X132965436Y-68601000D02*
X134169564Y-68601000D01*
X132965436Y-66781000D02*
X134169564Y-66781000D01*
D10*
X124023380Y-81240333D02*
X123547190Y-80907000D01*
X124023380Y-80668904D02*
X123023380Y-80668904D01*
X123023380Y-81049857D01*
X123071000Y-81145095D01*
X123118619Y-81192714D01*
X123213857Y-81240333D01*
X123356714Y-81240333D01*
X123451952Y-81192714D01*
X123499571Y-81145095D01*
X123547190Y-81049857D01*
X123547190Y-80668904D01*
X123023380Y-82097476D02*
X123023380Y-81907000D01*
X123071000Y-81811761D01*
X123118619Y-81764142D01*
X123261476Y-81668904D01*
X123451952Y-81621285D01*
X123832904Y-81621285D01*
X123928142Y-81668904D01*
X123975761Y-81716523D01*
X124023380Y-81811761D01*
X124023380Y-82002238D01*
X123975761Y-82097476D01*
X123928142Y-82145095D01*
X123832904Y-82192714D01*
X123594809Y-82192714D01*
X123499571Y-82145095D01*
X123451952Y-82097476D01*
X123404333Y-82002238D01*
X123404333Y-81811761D01*
X123451952Y-81716523D01*
X123499571Y-81668904D01*
X123594809Y-81621285D01*
X130923380Y-81203833D02*
X130447190Y-80870500D01*
X130923380Y-80632404D02*
X129923380Y-80632404D01*
X129923380Y-81013357D01*
X129971000Y-81108595D01*
X130018619Y-81156214D01*
X130113857Y-81203833D01*
X130256714Y-81203833D01*
X130351952Y-81156214D01*
X130399571Y-81108595D01*
X130447190Y-81013357D01*
X130447190Y-80632404D01*
X129923380Y-82108595D02*
X129923380Y-81632404D01*
X130399571Y-81584785D01*
X130351952Y-81632404D01*
X130304333Y-81727642D01*
X130304333Y-81965738D01*
X130351952Y-82060976D01*
X130399571Y-82108595D01*
X130494809Y-82156214D01*
X130732904Y-82156214D01*
X130828142Y-82108595D01*
X130875761Y-82060976D01*
X130923380Y-81965738D01*
X130923380Y-81727642D01*
X130875761Y-81632404D01*
X130828142Y-81584785D01*
X124023380Y-89368333D02*
X123547190Y-89035000D01*
X124023380Y-88796904D02*
X123023380Y-88796904D01*
X123023380Y-89177857D01*
X123071000Y-89273095D01*
X123118619Y-89320714D01*
X123213857Y-89368333D01*
X123356714Y-89368333D01*
X123451952Y-89320714D01*
X123499571Y-89273095D01*
X123547190Y-89177857D01*
X123547190Y-88796904D01*
X123356714Y-90225476D02*
X124023380Y-90225476D01*
X122975761Y-89987380D02*
X123690047Y-89749285D01*
X123690047Y-90368333D01*
X130923380Y-89368333D02*
X130447190Y-89035000D01*
X130923380Y-88796904D02*
X129923380Y-88796904D01*
X129923380Y-89177857D01*
X129971000Y-89273095D01*
X130018619Y-89320714D01*
X130113857Y-89368333D01*
X130256714Y-89368333D01*
X130351952Y-89320714D01*
X130399571Y-89273095D01*
X130447190Y-89177857D01*
X130447190Y-88796904D01*
X129923380Y-89701666D02*
X129923380Y-90320714D01*
X130304333Y-89987380D01*
X130304333Y-90130238D01*
X130351952Y-90225476D01*
X130399571Y-90273095D01*
X130494809Y-90320714D01*
X130732904Y-90320714D01*
X130828142Y-90273095D01*
X130875761Y-90225476D01*
X130923380Y-90130238D01*
X130923380Y-89844523D01*
X130875761Y-89749285D01*
X130828142Y-89701666D01*
X127293666Y-101957142D02*
X127341285Y-102004761D01*
X127484142Y-102052380D01*
X127579380Y-102052380D01*
X127722238Y-102004761D01*
X127817476Y-101909523D01*
X127865095Y-101814285D01*
X127912714Y-101623809D01*
X127912714Y-101480952D01*
X127865095Y-101290476D01*
X127817476Y-101195238D01*
X127722238Y-101100000D01*
X127579380Y-101052380D01*
X127484142Y-101052380D01*
X127341285Y-101100000D01*
X127293666Y-101147619D01*
X126436523Y-101052380D02*
X126627000Y-101052380D01*
X126722238Y-101100000D01*
X126769857Y-101147619D01*
X126865095Y-101290476D01*
X126912714Y-101480952D01*
X126912714Y-101861904D01*
X126865095Y-101957142D01*
X126817476Y-102004761D01*
X126722238Y-102052380D01*
X126531761Y-102052380D01*
X126436523Y-102004761D01*
X126388904Y-101957142D01*
X126341285Y-101861904D01*
X126341285Y-101623809D01*
X126388904Y-101528571D01*
X126436523Y-101480952D01*
X126531761Y-101433333D01*
X126722238Y-101433333D01*
X126817476Y-101480952D01*
X126865095Y-101528571D01*
X126912714Y-101623809D01*
X127293666Y-99417142D02*
X127341285Y-99464761D01*
X127484142Y-99512380D01*
X127579380Y-99512380D01*
X127722238Y-99464761D01*
X127817476Y-99369523D01*
X127865095Y-99274285D01*
X127912714Y-99083809D01*
X127912714Y-98940952D01*
X127865095Y-98750476D01*
X127817476Y-98655238D01*
X127722238Y-98560000D01*
X127579380Y-98512380D01*
X127484142Y-98512380D01*
X127341285Y-98560000D01*
X127293666Y-98607619D01*
X126388904Y-98512380D02*
X126865095Y-98512380D01*
X126912714Y-98988571D01*
X126865095Y-98940952D01*
X126769857Y-98893333D01*
X126531761Y-98893333D01*
X126436523Y-98940952D01*
X126388904Y-98988571D01*
X126341285Y-99083809D01*
X126341285Y-99321904D01*
X126388904Y-99417142D01*
X126436523Y-99464761D01*
X126531761Y-99512380D01*
X126769857Y-99512380D01*
X126865095Y-99464761D01*
X126912714Y-99417142D01*
X133643666Y-70080142D02*
X133691285Y-70127761D01*
X133834142Y-70175380D01*
X133929380Y-70175380D01*
X134072238Y-70127761D01*
X134167476Y-70032523D01*
X134215095Y-69937285D01*
X134262714Y-69746809D01*
X134262714Y-69603952D01*
X134215095Y-69413476D01*
X134167476Y-69318238D01*
X134072238Y-69223000D01*
X133929380Y-69175380D01*
X133834142Y-69175380D01*
X133691285Y-69223000D01*
X133643666Y-69270619D01*
X133310333Y-69175380D02*
X132691285Y-69175380D01*
X133024619Y-69556333D01*
X132881761Y-69556333D01*
X132786523Y-69603952D01*
X132738904Y-69651571D01*
X132691285Y-69746809D01*
X132691285Y-69984904D01*
X132738904Y-70080142D01*
X132786523Y-70127761D01*
X132881761Y-70175380D01*
X133167476Y-70175380D01*
X133262714Y-70127761D01*
X133310333Y-70080142D01*
M02*
