G04 #@! TF.GenerationSoftware,KiCad,Pcbnew,(5.1.9)-1*
G04 #@! TF.CreationDate,2021-02-27T14:39:48+01:00*
G04 #@! TF.ProjectId,SteeringWheelInterface,53746565-7269-46e6-9757-6865656c496e,rev?*
G04 #@! TF.SameCoordinates,Original*
G04 #@! TF.FileFunction,Soldermask,Top*
G04 #@! TF.FilePolarity,Negative*
%FSLAX46Y46*%
G04 Gerber Fmt 4.6, Leading zero omitted, Abs format (unit mm)*
G04 Created by KiCad (PCBNEW (5.1.9)-1) date 2021-02-27 14:39:48*
%MOMM*%
%LPD*%
G01*
G04 APERTURE LIST*
%ADD10R,0.700000X0.450000*%
%ADD11R,10.800000X9.400000*%
%ADD12R,1.100000X4.600000*%
%ADD13R,1.700000X1.700000*%
%ADD14O,1.700000X1.700000*%
%ADD15C,1.600000*%
%ADD16R,1.600000X1.600000*%
%ADD17O,1.600000X1.600000*%
G04 APERTURE END LIST*
G36*
G01*
X123053000Y-103582500D02*
X121803000Y-103582500D01*
G75*
G02*
X121553000Y-103332500I0J250000D01*
G01*
X121553000Y-102407500D01*
G75*
G02*
X121803000Y-102157500I250000J0D01*
G01*
X123053000Y-102157500D01*
G75*
G02*
X123303000Y-102407500I0J-250000D01*
G01*
X123303000Y-103332500D01*
G75*
G02*
X123053000Y-103582500I-250000J0D01*
G01*
G37*
G36*
G01*
X123053000Y-106557500D02*
X121803000Y-106557500D01*
G75*
G02*
X121553000Y-106307500I0J250000D01*
G01*
X121553000Y-105382500D01*
G75*
G02*
X121803000Y-105132500I250000J0D01*
G01*
X123053000Y-105132500D01*
G75*
G02*
X123303000Y-105382500I0J-250000D01*
G01*
X123303000Y-106307500D01*
G75*
G02*
X123053000Y-106557500I-250000J0D01*
G01*
G37*
D10*
X124063000Y-108966000D03*
X122063000Y-109616000D03*
X122063000Y-108316000D03*
G36*
G01*
X134330000Y-59918001D02*
X134330000Y-56667999D01*
G75*
G02*
X134579999Y-56418000I249999J0D01*
G01*
X135930001Y-56418000D01*
G75*
G02*
X136180000Y-56667999I0J-249999D01*
G01*
X136180000Y-59918001D01*
G75*
G02*
X135930001Y-60168000I-249999J0D01*
G01*
X134579999Y-60168000D01*
G75*
G02*
X134330000Y-59918001I0J249999D01*
G01*
G37*
G36*
G01*
X129780000Y-59918001D02*
X129780000Y-56667999D01*
G75*
G02*
X130029999Y-56418000I249999J0D01*
G01*
X131380001Y-56418000D01*
G75*
G02*
X131630000Y-56667999I0J-249999D01*
G01*
X131630000Y-59918001D01*
G75*
G02*
X131380001Y-60168000I-249999J0D01*
G01*
X130029999Y-60168000D01*
G75*
G02*
X129780000Y-59918001I0J249999D01*
G01*
G37*
D11*
X123190000Y-57150000D03*
D12*
X126590000Y-66300000D03*
X124890000Y-66300000D03*
X123190000Y-66300000D03*
X121490000Y-66300000D03*
X119790000Y-66300000D03*
G36*
G01*
X131367500Y-102225000D02*
X131367500Y-100975000D01*
G75*
G02*
X131617500Y-100725000I250000J0D01*
G01*
X132542500Y-100725000D01*
G75*
G02*
X132792500Y-100975000I0J-250000D01*
G01*
X132792500Y-102225000D01*
G75*
G02*
X132542500Y-102475000I-250000J0D01*
G01*
X131617500Y-102475000D01*
G75*
G02*
X131367500Y-102225000I0J250000D01*
G01*
G37*
G36*
G01*
X128392500Y-102225000D02*
X128392500Y-100975000D01*
G75*
G02*
X128642500Y-100725000I250000J0D01*
G01*
X129567500Y-100725000D01*
G75*
G02*
X129817500Y-100975000I0J-250000D01*
G01*
X129817500Y-102225000D01*
G75*
G02*
X129567500Y-102475000I-250000J0D01*
G01*
X128642500Y-102475000D01*
G75*
G02*
X128392500Y-102225000I0J250000D01*
G01*
G37*
G36*
G01*
X131367500Y-99685000D02*
X131367500Y-98435000D01*
G75*
G02*
X131617500Y-98185000I250000J0D01*
G01*
X132542500Y-98185000D01*
G75*
G02*
X132792500Y-98435000I0J-250000D01*
G01*
X132792500Y-99685000D01*
G75*
G02*
X132542500Y-99935000I-250000J0D01*
G01*
X131617500Y-99935000D01*
G75*
G02*
X131367500Y-99685000I0J250000D01*
G01*
G37*
G36*
G01*
X128392500Y-99685000D02*
X128392500Y-98435000D01*
G75*
G02*
X128642500Y-98185000I250000J0D01*
G01*
X129567500Y-98185000D01*
G75*
G02*
X129817500Y-98435000I0J-250000D01*
G01*
X129817500Y-99685000D01*
G75*
G02*
X129567500Y-99935000I-250000J0D01*
G01*
X128642500Y-99935000D01*
G75*
G02*
X128392500Y-99685000I0J250000D01*
G01*
G37*
D13*
X138049000Y-107569000D03*
D14*
X138049000Y-96520000D03*
X138049000Y-99060000D03*
D13*
X138049000Y-101600000D03*
D14*
X131318000Y-53975000D03*
D13*
X133858000Y-53975000D03*
G36*
G01*
X131328000Y-106348500D02*
X132578000Y-106348500D01*
G75*
G02*
X132828000Y-106598500I0J-250000D01*
G01*
X132828000Y-107523500D01*
G75*
G02*
X132578000Y-107773500I-250000J0D01*
G01*
X131328000Y-107773500D01*
G75*
G02*
X131078000Y-107523500I0J250000D01*
G01*
X131078000Y-106598500D01*
G75*
G02*
X131328000Y-106348500I250000J0D01*
G01*
G37*
G36*
G01*
X131328000Y-103373500D02*
X132578000Y-103373500D01*
G75*
G02*
X132828000Y-103623500I0J-250000D01*
G01*
X132828000Y-104548500D01*
G75*
G02*
X132578000Y-104798500I-250000J0D01*
G01*
X131328000Y-104798500D01*
G75*
G02*
X131078000Y-104548500I0J250000D01*
G01*
X131078000Y-103623500D01*
G75*
G02*
X131328000Y-103373500I250000J0D01*
G01*
G37*
G36*
G01*
X124600000Y-71491000D02*
X124600000Y-70241000D01*
G75*
G02*
X124850000Y-69991000I250000J0D01*
G01*
X125775000Y-69991000D01*
G75*
G02*
X126025000Y-70241000I0J-250000D01*
G01*
X126025000Y-71491000D01*
G75*
G02*
X125775000Y-71741000I-250000J0D01*
G01*
X124850000Y-71741000D01*
G75*
G02*
X124600000Y-71491000I0J250000D01*
G01*
G37*
G36*
G01*
X121625000Y-71491000D02*
X121625000Y-70241000D01*
G75*
G02*
X121875000Y-69991000I250000J0D01*
G01*
X122800000Y-69991000D01*
G75*
G02*
X123050000Y-70241000I0J-250000D01*
G01*
X123050000Y-71491000D01*
G75*
G02*
X122800000Y-71741000I-250000J0D01*
G01*
X121875000Y-71741000D01*
G75*
G02*
X121625000Y-71491000I0J250000D01*
G01*
G37*
D15*
X135880000Y-64897000D03*
D16*
X132080000Y-64897000D03*
G36*
G01*
X130947000Y-75832000D02*
X132197000Y-75832000D01*
G75*
G02*
X132447000Y-76082000I0J-250000D01*
G01*
X132447000Y-77007000D01*
G75*
G02*
X132197000Y-77257000I-250000J0D01*
G01*
X130947000Y-77257000D01*
G75*
G02*
X130697000Y-77007000I0J250000D01*
G01*
X130697000Y-76082000D01*
G75*
G02*
X130947000Y-75832000I250000J0D01*
G01*
G37*
G36*
G01*
X130947000Y-72857000D02*
X132197000Y-72857000D01*
G75*
G02*
X132447000Y-73107000I0J-250000D01*
G01*
X132447000Y-74032000D01*
G75*
G02*
X132197000Y-74282000I-250000J0D01*
G01*
X130947000Y-74282000D01*
G75*
G02*
X130697000Y-74032000I0J250000D01*
G01*
X130697000Y-73107000D01*
G75*
G02*
X130947000Y-72857000I250000J0D01*
G01*
G37*
D17*
X134620000Y-109220000D03*
X119380000Y-109220000D03*
X134620000Y-73660000D03*
X119380000Y-106680000D03*
X134620000Y-76200000D03*
X119380000Y-104140000D03*
X134620000Y-78740000D03*
X119380000Y-101600000D03*
X134620000Y-81280000D03*
X119380000Y-99060000D03*
X134620000Y-83820000D03*
X119380000Y-96520000D03*
X134620000Y-86360000D03*
X119380000Y-93980000D03*
X134620000Y-88900000D03*
X119380000Y-91440000D03*
X134620000Y-91440000D03*
X119380000Y-88900000D03*
X134620000Y-93980000D03*
X119380000Y-86360000D03*
X134620000Y-96520000D03*
X119380000Y-83820000D03*
X134620000Y-99060000D03*
X119380000Y-81280000D03*
X134620000Y-101600000D03*
X119380000Y-78740000D03*
X134620000Y-104140000D03*
X119380000Y-76200000D03*
X134620000Y-106680000D03*
D16*
X119380000Y-73660000D03*
M02*
