G04 #@! TF.GenerationSoftware,KiCad,Pcbnew,(5.1.9)-1*
G04 #@! TF.CreationDate,2021-02-27T14:39:48+01:00*
G04 #@! TF.ProjectId,SteeringWheelInterface,53746565-7269-46e6-9757-6865656c496e,rev?*
G04 #@! TF.SameCoordinates,Original*
G04 #@! TF.FileFunction,Soldermask,Bot*
G04 #@! TF.FilePolarity,Negative*
%FSLAX46Y46*%
G04 Gerber Fmt 4.6, Leading zero omitted, Abs format (unit mm)*
G04 Created by KiCad (PCBNEW (5.1.9)-1) date 2021-02-27 14:39:48*
%MOMM*%
%LPD*%
G01*
G04 APERTURE LIST*
%ADD10R,1.000000X1.500000*%
%ADD11R,1.700000X1.700000*%
%ADD12O,1.700000X1.700000*%
%ADD13C,1.600000*%
%ADD14R,1.600000X1.600000*%
%ADD15O,1.600000X1.600000*%
G04 APERTURE END LIST*
D10*
X125700000Y-77216000D03*
X127000000Y-77216000D03*
X128300000Y-77216000D03*
X125700000Y-85471000D03*
X127000000Y-85471000D03*
X128300000Y-85471000D03*
X125730000Y-93726000D03*
X127030000Y-93726000D03*
G36*
G01*
X125974000Y-80595500D02*
X124724000Y-80595500D01*
G75*
G02*
X124474000Y-80345500I0J250000D01*
G01*
X124474000Y-79420500D01*
G75*
G02*
X124724000Y-79170500I250000J0D01*
G01*
X125974000Y-79170500D01*
G75*
G02*
X126224000Y-79420500I0J-250000D01*
G01*
X126224000Y-80345500D01*
G75*
G02*
X125974000Y-80595500I-250000J0D01*
G01*
G37*
G36*
G01*
X125974000Y-83570500D02*
X124724000Y-83570500D01*
G75*
G02*
X124474000Y-83320500I0J250000D01*
G01*
X124474000Y-82395500D01*
G75*
G02*
X124724000Y-82145500I250000J0D01*
G01*
X125974000Y-82145500D01*
G75*
G02*
X126224000Y-82395500I0J-250000D01*
G01*
X126224000Y-83320500D01*
G75*
G02*
X125974000Y-83570500I-250000J0D01*
G01*
G37*
G36*
G01*
X129276000Y-80595500D02*
X128026000Y-80595500D01*
G75*
G02*
X127776000Y-80345500I0J250000D01*
G01*
X127776000Y-79420500D01*
G75*
G02*
X128026000Y-79170500I250000J0D01*
G01*
X129276000Y-79170500D01*
G75*
G02*
X129526000Y-79420500I0J-250000D01*
G01*
X129526000Y-80345500D01*
G75*
G02*
X129276000Y-80595500I-250000J0D01*
G01*
G37*
G36*
G01*
X129276000Y-83570500D02*
X128026000Y-83570500D01*
G75*
G02*
X127776000Y-83320500I0J250000D01*
G01*
X127776000Y-82395500D01*
G75*
G02*
X128026000Y-82145500I250000J0D01*
G01*
X129276000Y-82145500D01*
G75*
G02*
X129526000Y-82395500I0J-250000D01*
G01*
X129526000Y-83320500D01*
G75*
G02*
X129276000Y-83570500I-250000J0D01*
G01*
G37*
G36*
G01*
X125974000Y-88760000D02*
X124724000Y-88760000D01*
G75*
G02*
X124474000Y-88510000I0J250000D01*
G01*
X124474000Y-87585000D01*
G75*
G02*
X124724000Y-87335000I250000J0D01*
G01*
X125974000Y-87335000D01*
G75*
G02*
X126224000Y-87585000I0J-250000D01*
G01*
X126224000Y-88510000D01*
G75*
G02*
X125974000Y-88760000I-250000J0D01*
G01*
G37*
G36*
G01*
X125974000Y-91735000D02*
X124724000Y-91735000D01*
G75*
G02*
X124474000Y-91485000I0J250000D01*
G01*
X124474000Y-90560000D01*
G75*
G02*
X124724000Y-90310000I250000J0D01*
G01*
X125974000Y-90310000D01*
G75*
G02*
X126224000Y-90560000I0J-250000D01*
G01*
X126224000Y-91485000D01*
G75*
G02*
X125974000Y-91735000I-250000J0D01*
G01*
G37*
G36*
G01*
X129276000Y-88760000D02*
X128026000Y-88760000D01*
G75*
G02*
X127776000Y-88510000I0J250000D01*
G01*
X127776000Y-87585000D01*
G75*
G02*
X128026000Y-87335000I250000J0D01*
G01*
X129276000Y-87335000D01*
G75*
G02*
X129526000Y-87585000I0J-250000D01*
G01*
X129526000Y-88510000D01*
G75*
G02*
X129276000Y-88760000I-250000J0D01*
G01*
G37*
G36*
G01*
X129276000Y-91735000D02*
X128026000Y-91735000D01*
G75*
G02*
X127776000Y-91485000I0J250000D01*
G01*
X127776000Y-90560000D01*
G75*
G02*
X128026000Y-90310000I250000J0D01*
G01*
X129276000Y-90310000D01*
G75*
G02*
X129526000Y-90560000I0J-250000D01*
G01*
X129526000Y-91485000D01*
G75*
G02*
X129276000Y-91735000I-250000J0D01*
G01*
G37*
D11*
X138049000Y-107569000D03*
D12*
X138049000Y-96520000D03*
X138049000Y-99060000D03*
D11*
X138049000Y-101600000D03*
D12*
X131318000Y-53975000D03*
D11*
X133858000Y-53975000D03*
G36*
G01*
X129871500Y-100975000D02*
X129871500Y-102225000D01*
G75*
G02*
X129621500Y-102475000I-250000J0D01*
G01*
X128696500Y-102475000D01*
G75*
G02*
X128446500Y-102225000I0J250000D01*
G01*
X128446500Y-100975000D01*
G75*
G02*
X128696500Y-100725000I250000J0D01*
G01*
X129621500Y-100725000D01*
G75*
G02*
X129871500Y-100975000I0J-250000D01*
G01*
G37*
G36*
G01*
X132846500Y-100975000D02*
X132846500Y-102225000D01*
G75*
G02*
X132596500Y-102475000I-250000J0D01*
G01*
X131671500Y-102475000D01*
G75*
G02*
X131421500Y-102225000I0J250000D01*
G01*
X131421500Y-100975000D01*
G75*
G02*
X131671500Y-100725000I250000J0D01*
G01*
X132596500Y-100725000D01*
G75*
G02*
X132846500Y-100975000I0J-250000D01*
G01*
G37*
G36*
G01*
X129871500Y-98435000D02*
X129871500Y-99685000D01*
G75*
G02*
X129621500Y-99935000I-250000J0D01*
G01*
X128696500Y-99935000D01*
G75*
G02*
X128446500Y-99685000I0J250000D01*
G01*
X128446500Y-98435000D01*
G75*
G02*
X128696500Y-98185000I250000J0D01*
G01*
X129621500Y-98185000D01*
G75*
G02*
X129871500Y-98435000I0J-250000D01*
G01*
G37*
G36*
G01*
X132846500Y-98435000D02*
X132846500Y-99685000D01*
G75*
G02*
X132596500Y-99935000I-250000J0D01*
G01*
X131671500Y-99935000D01*
G75*
G02*
X131421500Y-99685000I0J250000D01*
G01*
X131421500Y-98435000D01*
G75*
G02*
X131671500Y-98185000I250000J0D01*
G01*
X132596500Y-98185000D01*
G75*
G02*
X132846500Y-98435000I0J-250000D01*
G01*
G37*
G36*
G01*
X134342500Y-68316000D02*
X134342500Y-67066000D01*
G75*
G02*
X134592500Y-66816000I250000J0D01*
G01*
X135517500Y-66816000D01*
G75*
G02*
X135767500Y-67066000I0J-250000D01*
G01*
X135767500Y-68316000D01*
G75*
G02*
X135517500Y-68566000I-250000J0D01*
G01*
X134592500Y-68566000D01*
G75*
G02*
X134342500Y-68316000I0J250000D01*
G01*
G37*
G36*
G01*
X131367500Y-68316000D02*
X131367500Y-67066000D01*
G75*
G02*
X131617500Y-66816000I250000J0D01*
G01*
X132542500Y-66816000D01*
G75*
G02*
X132792500Y-67066000I0J-250000D01*
G01*
X132792500Y-68316000D01*
G75*
G02*
X132542500Y-68566000I-250000J0D01*
G01*
X131617500Y-68566000D01*
G75*
G02*
X131367500Y-68316000I0J250000D01*
G01*
G37*
D13*
X135880000Y-64897000D03*
D14*
X132080000Y-64897000D03*
D15*
X134620000Y-109220000D03*
X119380000Y-109220000D03*
X134620000Y-73660000D03*
X119380000Y-106680000D03*
X134620000Y-76200000D03*
X119380000Y-104140000D03*
X134620000Y-78740000D03*
X119380000Y-101600000D03*
X134620000Y-81280000D03*
X119380000Y-99060000D03*
X134620000Y-83820000D03*
X119380000Y-96520000D03*
X134620000Y-86360000D03*
X119380000Y-93980000D03*
X134620000Y-88900000D03*
X119380000Y-91440000D03*
X134620000Y-91440000D03*
X119380000Y-88900000D03*
X134620000Y-93980000D03*
X119380000Y-86360000D03*
X134620000Y-96520000D03*
X119380000Y-83820000D03*
X134620000Y-99060000D03*
X119380000Y-81280000D03*
X134620000Y-101600000D03*
X119380000Y-78740000D03*
X134620000Y-104140000D03*
X119380000Y-76200000D03*
X134620000Y-106680000D03*
D14*
X119380000Y-73660000D03*
M02*
