M48
; DRILL file {KiCad (5.1.9)-1} date 02/27/21 14:39:59
; FORMAT={-:-/ absolute / inch / decimal}
; #@! TF.CreationDate,2021-02-27T14:39:59+01:00
; #@! TF.GenerationSoftware,Kicad,Pcbnew,(5.1.9)-1
; #@! TF.FileFunction,Plated,1,2,PTH
FMAT,2
INCH
T1C0.0157
T2C0.0315
T3C0.0394
%
G90
G05
T1
X4.66Y-2.085
X4.66Y-2.125
X4.66Y-2.165
X4.66Y-2.205
X4.66Y-2.245
X4.66Y-2.285
X4.66Y-2.325
X4.66Y-2.365
X4.66Y-2.415
X5.04Y-2.085
X5.04Y-2.125
X5.04Y-2.165
X5.04Y-2.2
X5.04Y-2.235
X5.04Y-2.27
X5.04Y-2.305
X5.04Y-2.345
X5.04Y-2.38
X5.04Y-2.415
T2
X5.2Y-2.555
X5.3496Y-2.555
T3
X4.7Y-2.9
X4.7Y-3.0
X4.7Y-3.1
X4.7Y-3.2
X4.7Y-3.3
X4.7Y-3.4
X4.7Y-3.5
X4.7Y-3.6
X4.7Y-3.7
X4.7Y-3.8
X4.7Y-3.9
X4.7Y-4.0
X4.7Y-4.1
X4.7Y-4.2
X4.7Y-4.3
X5.17Y-2.125
X5.27Y-2.125
X5.3Y-2.9
X5.3Y-3.0
X5.3Y-3.1
X5.3Y-3.2
X5.3Y-3.3
X5.3Y-3.4
X5.3Y-3.5
X5.3Y-3.6
X5.3Y-3.7
X5.3Y-3.8
X5.3Y-3.9
X5.3Y-4.0
X5.3Y-4.1
X5.3Y-4.2
X5.3Y-4.3
X5.435Y-3.8
X5.435Y-3.9
X5.435Y-4.0
X5.435Y-4.235
T0
M30
