G04 #@! TF.GenerationSoftware,KiCad,Pcbnew,(5.1.9)-1*
G04 #@! TF.CreationDate,2021-02-27T14:39:48+01:00*
G04 #@! TF.ProjectId,SteeringWheelInterface,53746565-7269-46e6-9757-6865656c496e,rev?*
G04 #@! TF.SameCoordinates,Original*
G04 #@! TF.FileFunction,Legend,Top*
G04 #@! TF.FilePolarity,Positive*
%FSLAX46Y46*%
G04 Gerber Fmt 4.6, Leading zero omitted, Abs format (unit mm)*
G04 Created by KiCad (PCBNEW (5.1.9)-1) date 2021-02-27 14:39:48*
%MOMM*%
%LPD*%
G01*
G04 APERTURE LIST*
%ADD10C,0.150000*%
%ADD11C,0.120000*%
G04 APERTURE END LIST*
D10*
X138088666Y-94305000D02*
X138088666Y-93828809D01*
X138374380Y-94400238D02*
X137374380Y-94066904D01*
X138374380Y-93733571D01*
X137993428Y-93400238D02*
X137993428Y-92638333D01*
X137850571Y-91828809D02*
X137898190Y-91685952D01*
X137945809Y-91638333D01*
X138041047Y-91590714D01*
X138183904Y-91590714D01*
X138279142Y-91638333D01*
X138326761Y-91685952D01*
X138374380Y-91781190D01*
X138374380Y-92162142D01*
X137374380Y-92162142D01*
X137374380Y-91828809D01*
X137422000Y-91733571D01*
X137469619Y-91685952D01*
X137564857Y-91638333D01*
X137660095Y-91638333D01*
X137755333Y-91685952D01*
X137802952Y-91733571D01*
X137850571Y-91828809D01*
X137850571Y-92162142D01*
X137993428Y-91162142D02*
X137993428Y-90400238D01*
X137422000Y-89400238D02*
X137374380Y-89495476D01*
X137374380Y-89638333D01*
X137422000Y-89781190D01*
X137517238Y-89876428D01*
X137612476Y-89924047D01*
X137802952Y-89971666D01*
X137945809Y-89971666D01*
X138136285Y-89924047D01*
X138231523Y-89876428D01*
X138326761Y-89781190D01*
X138374380Y-89638333D01*
X138374380Y-89543095D01*
X138326761Y-89400238D01*
X138279142Y-89352619D01*
X137945809Y-89352619D01*
X137945809Y-89543095D01*
X138374380Y-88924047D02*
X137374380Y-88924047D01*
X138374380Y-88352619D01*
X137374380Y-88352619D01*
X138374380Y-87876428D02*
X137374380Y-87876428D01*
X137374380Y-87638333D01*
X137422000Y-87495476D01*
X137517238Y-87400238D01*
X137612476Y-87352619D01*
X137802952Y-87305000D01*
X137945809Y-87305000D01*
X138136285Y-87352619D01*
X138231523Y-87400238D01*
X138326761Y-87495476D01*
X138374380Y-87638333D01*
X138374380Y-87876428D01*
D11*
X121518000Y-104959564D02*
X121518000Y-103755436D01*
X123338000Y-104959564D02*
X123338000Y-103755436D01*
X123793000Y-109466000D02*
X123793000Y-110126000D01*
X123793000Y-107806000D02*
X123793000Y-108466000D01*
X123793000Y-107806000D02*
X121763000Y-107806000D01*
X122383000Y-110126000D02*
X123793000Y-110126000D01*
X129520000Y-60428000D02*
X135580000Y-60428000D01*
X129520000Y-56158000D02*
X129520000Y-60428000D01*
X135580000Y-56158000D02*
X129520000Y-56158000D01*
X117990000Y-61975000D02*
X117990000Y-63475000D01*
X117990000Y-63475000D02*
X118940000Y-63475000D01*
X118940000Y-63475000D02*
X118940000Y-68600000D01*
X128390000Y-61975000D02*
X128390000Y-63475000D01*
X128390000Y-63475000D02*
X127440000Y-63475000D01*
X127440000Y-63475000D02*
X127440000Y-64575000D01*
X129990436Y-100690000D02*
X131194564Y-100690000D01*
X129990436Y-102510000D02*
X131194564Y-102510000D01*
X129990436Y-98150000D02*
X131194564Y-98150000D01*
X129990436Y-99970000D02*
X131194564Y-99970000D01*
X136719000Y-108899000D02*
X139379000Y-108899000D01*
X136719000Y-108839000D02*
X136719000Y-108899000D01*
X139379000Y-108839000D02*
X139379000Y-108899000D01*
X136719000Y-108839000D02*
X139379000Y-108839000D01*
X136719000Y-107569000D02*
X136719000Y-106239000D01*
X136719000Y-106239000D02*
X138049000Y-106239000D01*
X139379000Y-95190000D02*
X136719000Y-95190000D01*
X139379000Y-100330000D02*
X139379000Y-95190000D01*
X136719000Y-100330000D02*
X136719000Y-95190000D01*
X139379000Y-100330000D02*
X136719000Y-100330000D01*
X139379000Y-101600000D02*
X139379000Y-102930000D01*
X139379000Y-102930000D02*
X138049000Y-102930000D01*
X129988000Y-52645000D02*
X129988000Y-55305000D01*
X132588000Y-52645000D02*
X129988000Y-52645000D01*
X132588000Y-55305000D02*
X129988000Y-55305000D01*
X132588000Y-52645000D02*
X132588000Y-55305000D01*
X133858000Y-52645000D02*
X135188000Y-52645000D01*
X135188000Y-52645000D02*
X135188000Y-53975000D01*
X132863000Y-104971436D02*
X132863000Y-106175564D01*
X131043000Y-104971436D02*
X131043000Y-106175564D01*
X123222936Y-69956000D02*
X124427064Y-69956000D01*
X123222936Y-71776000D02*
X124427064Y-71776000D01*
X138100000Y-64897000D02*
G75*
G03*
X138100000Y-64897000I-4120000J0D01*
G01*
X133980000Y-60817000D02*
X133980000Y-68977000D01*
X134020000Y-60817000D02*
X134020000Y-68977000D01*
X134060000Y-60817000D02*
X134060000Y-68977000D01*
X134100000Y-60818000D02*
X134100000Y-68976000D01*
X134140000Y-60820000D02*
X134140000Y-68974000D01*
X134180000Y-60821000D02*
X134180000Y-68973000D01*
X134220000Y-60823000D02*
X134220000Y-68971000D01*
X134260000Y-60826000D02*
X134260000Y-68968000D01*
X134300000Y-60829000D02*
X134300000Y-68965000D01*
X134340000Y-60832000D02*
X134340000Y-68962000D01*
X134380000Y-60836000D02*
X134380000Y-68958000D01*
X134420000Y-60840000D02*
X134420000Y-68954000D01*
X134460000Y-60845000D02*
X134460000Y-68949000D01*
X134500000Y-60849000D02*
X134500000Y-68945000D01*
X134540000Y-60855000D02*
X134540000Y-68939000D01*
X134580000Y-60860000D02*
X134580000Y-68934000D01*
X134620000Y-60867000D02*
X134620000Y-68927000D01*
X134660000Y-60873000D02*
X134660000Y-68921000D01*
X134701000Y-60880000D02*
X134701000Y-68914000D01*
X134741000Y-60887000D02*
X134741000Y-68907000D01*
X134781000Y-60895000D02*
X134781000Y-68899000D01*
X134821000Y-60903000D02*
X134821000Y-68891000D01*
X134861000Y-60912000D02*
X134861000Y-63857000D01*
X134861000Y-65937000D02*
X134861000Y-68882000D01*
X134901000Y-60921000D02*
X134901000Y-63857000D01*
X134901000Y-65937000D02*
X134901000Y-68873000D01*
X134941000Y-60930000D02*
X134941000Y-63857000D01*
X134941000Y-65937000D02*
X134941000Y-68864000D01*
X134981000Y-60940000D02*
X134981000Y-63857000D01*
X134981000Y-65937000D02*
X134981000Y-68854000D01*
X135021000Y-60950000D02*
X135021000Y-63857000D01*
X135021000Y-65937000D02*
X135021000Y-68844000D01*
X135061000Y-60961000D02*
X135061000Y-63857000D01*
X135061000Y-65937000D02*
X135061000Y-68833000D01*
X135101000Y-60972000D02*
X135101000Y-63857000D01*
X135101000Y-65937000D02*
X135101000Y-68822000D01*
X135141000Y-60983000D02*
X135141000Y-63857000D01*
X135141000Y-65937000D02*
X135141000Y-68811000D01*
X135181000Y-60995000D02*
X135181000Y-63857000D01*
X135181000Y-65937000D02*
X135181000Y-68799000D01*
X135221000Y-61008000D02*
X135221000Y-63857000D01*
X135221000Y-65937000D02*
X135221000Y-68786000D01*
X135261000Y-61020000D02*
X135261000Y-63857000D01*
X135261000Y-65937000D02*
X135261000Y-68774000D01*
X135301000Y-61034000D02*
X135301000Y-63857000D01*
X135301000Y-65937000D02*
X135301000Y-68760000D01*
X135341000Y-61047000D02*
X135341000Y-63857000D01*
X135341000Y-65937000D02*
X135341000Y-68747000D01*
X135381000Y-61062000D02*
X135381000Y-63857000D01*
X135381000Y-65937000D02*
X135381000Y-68732000D01*
X135421000Y-61076000D02*
X135421000Y-63857000D01*
X135421000Y-65937000D02*
X135421000Y-68718000D01*
X135461000Y-61092000D02*
X135461000Y-63857000D01*
X135461000Y-65937000D02*
X135461000Y-68702000D01*
X135501000Y-61107000D02*
X135501000Y-63857000D01*
X135501000Y-65937000D02*
X135501000Y-68687000D01*
X135541000Y-61123000D02*
X135541000Y-63857000D01*
X135541000Y-65937000D02*
X135541000Y-68671000D01*
X135581000Y-61140000D02*
X135581000Y-63857000D01*
X135581000Y-65937000D02*
X135581000Y-68654000D01*
X135621000Y-61157000D02*
X135621000Y-63857000D01*
X135621000Y-65937000D02*
X135621000Y-68637000D01*
X135661000Y-61175000D02*
X135661000Y-63857000D01*
X135661000Y-65937000D02*
X135661000Y-68619000D01*
X135701000Y-61193000D02*
X135701000Y-63857000D01*
X135701000Y-65937000D02*
X135701000Y-68601000D01*
X135741000Y-61211000D02*
X135741000Y-63857000D01*
X135741000Y-65937000D02*
X135741000Y-68583000D01*
X135781000Y-61231000D02*
X135781000Y-63857000D01*
X135781000Y-65937000D02*
X135781000Y-68563000D01*
X135821000Y-61250000D02*
X135821000Y-63857000D01*
X135821000Y-65937000D02*
X135821000Y-68544000D01*
X135861000Y-61270000D02*
X135861000Y-63857000D01*
X135861000Y-65937000D02*
X135861000Y-68524000D01*
X135901000Y-61291000D02*
X135901000Y-63857000D01*
X135901000Y-65937000D02*
X135901000Y-68503000D01*
X135941000Y-61313000D02*
X135941000Y-63857000D01*
X135941000Y-65937000D02*
X135941000Y-68481000D01*
X135981000Y-61335000D02*
X135981000Y-63857000D01*
X135981000Y-65937000D02*
X135981000Y-68459000D01*
X136021000Y-61357000D02*
X136021000Y-63857000D01*
X136021000Y-65937000D02*
X136021000Y-68437000D01*
X136061000Y-61380000D02*
X136061000Y-63857000D01*
X136061000Y-65937000D02*
X136061000Y-68414000D01*
X136101000Y-61404000D02*
X136101000Y-63857000D01*
X136101000Y-65937000D02*
X136101000Y-68390000D01*
X136141000Y-61428000D02*
X136141000Y-63857000D01*
X136141000Y-65937000D02*
X136141000Y-68366000D01*
X136181000Y-61453000D02*
X136181000Y-63857000D01*
X136181000Y-65937000D02*
X136181000Y-68341000D01*
X136221000Y-61479000D02*
X136221000Y-63857000D01*
X136221000Y-65937000D02*
X136221000Y-68315000D01*
X136261000Y-61505000D02*
X136261000Y-63857000D01*
X136261000Y-65937000D02*
X136261000Y-68289000D01*
X136301000Y-61532000D02*
X136301000Y-63857000D01*
X136301000Y-65937000D02*
X136301000Y-68262000D01*
X136341000Y-61559000D02*
X136341000Y-63857000D01*
X136341000Y-65937000D02*
X136341000Y-68235000D01*
X136381000Y-61588000D02*
X136381000Y-63857000D01*
X136381000Y-65937000D02*
X136381000Y-68206000D01*
X136421000Y-61617000D02*
X136421000Y-63857000D01*
X136421000Y-65937000D02*
X136421000Y-68177000D01*
X136461000Y-61647000D02*
X136461000Y-63857000D01*
X136461000Y-65937000D02*
X136461000Y-68147000D01*
X136501000Y-61677000D02*
X136501000Y-63857000D01*
X136501000Y-65937000D02*
X136501000Y-68117000D01*
X136541000Y-61708000D02*
X136541000Y-63857000D01*
X136541000Y-65937000D02*
X136541000Y-68086000D01*
X136581000Y-61741000D02*
X136581000Y-63857000D01*
X136581000Y-65937000D02*
X136581000Y-68053000D01*
X136621000Y-61773000D02*
X136621000Y-63857000D01*
X136621000Y-65937000D02*
X136621000Y-68021000D01*
X136661000Y-61807000D02*
X136661000Y-63857000D01*
X136661000Y-65937000D02*
X136661000Y-67987000D01*
X136701000Y-61842000D02*
X136701000Y-63857000D01*
X136701000Y-65937000D02*
X136701000Y-67952000D01*
X136741000Y-61878000D02*
X136741000Y-63857000D01*
X136741000Y-65937000D02*
X136741000Y-67916000D01*
X136781000Y-61914000D02*
X136781000Y-63857000D01*
X136781000Y-65937000D02*
X136781000Y-67880000D01*
X136821000Y-61952000D02*
X136821000Y-63857000D01*
X136821000Y-65937000D02*
X136821000Y-67842000D01*
X136861000Y-61990000D02*
X136861000Y-63857000D01*
X136861000Y-65937000D02*
X136861000Y-67804000D01*
X136901000Y-62030000D02*
X136901000Y-63857000D01*
X136901000Y-65937000D02*
X136901000Y-67764000D01*
X136941000Y-62071000D02*
X136941000Y-67723000D01*
X136981000Y-62113000D02*
X136981000Y-67681000D01*
X137021000Y-62156000D02*
X137021000Y-67638000D01*
X137061000Y-62200000D02*
X137061000Y-67594000D01*
X137101000Y-62246000D02*
X137101000Y-67548000D01*
X137141000Y-62293000D02*
X137141000Y-67501000D01*
X137181000Y-62341000D02*
X137181000Y-67453000D01*
X137221000Y-62392000D02*
X137221000Y-67402000D01*
X137261000Y-62443000D02*
X137261000Y-67351000D01*
X137301000Y-62497000D02*
X137301000Y-67297000D01*
X137341000Y-62552000D02*
X137341000Y-67242000D01*
X137381000Y-62610000D02*
X137381000Y-67184000D01*
X137421000Y-62669000D02*
X137421000Y-67125000D01*
X137461000Y-62731000D02*
X137461000Y-67063000D01*
X137501000Y-62795000D02*
X137501000Y-66999000D01*
X137541000Y-62863000D02*
X137541000Y-66931000D01*
X137581000Y-62933000D02*
X137581000Y-66861000D01*
X137621000Y-63007000D02*
X137621000Y-66787000D01*
X137661000Y-63084000D02*
X137661000Y-66710000D01*
X137701000Y-63166000D02*
X137701000Y-66628000D01*
X137741000Y-63252000D02*
X137741000Y-66542000D01*
X137781000Y-63345000D02*
X137781000Y-66449000D01*
X137821000Y-63444000D02*
X137821000Y-66350000D01*
X137861000Y-63551000D02*
X137861000Y-66243000D01*
X137901000Y-63668000D02*
X137901000Y-66126000D01*
X137941000Y-63799000D02*
X137941000Y-65995000D01*
X137981000Y-63949000D02*
X137981000Y-65845000D01*
X138021000Y-64129000D02*
X138021000Y-65665000D01*
X138061000Y-64364000D02*
X138061000Y-65430000D01*
X129570302Y-62582000D02*
X130370302Y-62582000D01*
X129970302Y-62182000D02*
X129970302Y-62982000D01*
X132482000Y-74454936D02*
X132482000Y-75659064D01*
X130662000Y-74454936D02*
X130662000Y-75659064D01*
X120650000Y-74930000D02*
X120650000Y-72390000D01*
X120650000Y-72390000D02*
X117980000Y-72390000D01*
X117980000Y-74930000D02*
X117980000Y-113160000D01*
X117980000Y-69720000D02*
X117980000Y-72390000D01*
X133350000Y-72390000D02*
X136020000Y-72390000D01*
X133350000Y-72390000D02*
X133350000Y-110490000D01*
X133350000Y-110490000D02*
X136020000Y-110490000D01*
X120650000Y-74930000D02*
X117980000Y-74930000D01*
X120650000Y-74930000D02*
X120650000Y-110490000D01*
X120650000Y-110490000D02*
X117980000Y-110490000D01*
X117980000Y-113160000D02*
X136020000Y-113160000D01*
X136020000Y-113160000D02*
X136020000Y-69720000D01*
X136020000Y-69720000D02*
X117980000Y-69720000D01*
D10*
X124420333Y-104846380D02*
X124087000Y-104370190D01*
X123848904Y-104846380D02*
X123848904Y-103846380D01*
X124229857Y-103846380D01*
X124325095Y-103894000D01*
X124372714Y-103941619D01*
X124420333Y-104036857D01*
X124420333Y-104179714D01*
X124372714Y-104274952D01*
X124325095Y-104322571D01*
X124229857Y-104370190D01*
X123848904Y-104370190D01*
X124753666Y-103846380D02*
X125420333Y-103846380D01*
X124991761Y-104846380D01*
X124618761Y-107481619D02*
X124523523Y-107434000D01*
X124428285Y-107338761D01*
X124285428Y-107195904D01*
X124190190Y-107148285D01*
X124094952Y-107148285D01*
X124142571Y-107386380D02*
X124047333Y-107338761D01*
X123952095Y-107243523D01*
X123904476Y-107053047D01*
X123904476Y-106719714D01*
X123952095Y-106529238D01*
X124047333Y-106434000D01*
X124142571Y-106386380D01*
X124333047Y-106386380D01*
X124428285Y-106434000D01*
X124523523Y-106529238D01*
X124571142Y-106719714D01*
X124571142Y-107053047D01*
X124523523Y-107243523D01*
X124428285Y-107338761D01*
X124333047Y-107386380D01*
X124142571Y-107386380D01*
X125523523Y-107386380D02*
X124952095Y-107386380D01*
X125237809Y-107386380D02*
X125237809Y-106386380D01*
X125142571Y-106529238D01*
X125047333Y-106624476D01*
X124952095Y-106672095D01*
X136675904Y-58618380D02*
X136675904Y-57618380D01*
X136914000Y-57618380D01*
X137056857Y-57666000D01*
X137152095Y-57761238D01*
X137199714Y-57856476D01*
X137247333Y-58046952D01*
X137247333Y-58189809D01*
X137199714Y-58380285D01*
X137152095Y-58475523D01*
X137056857Y-58570761D01*
X136914000Y-58618380D01*
X136675904Y-58618380D01*
X138199714Y-58618380D02*
X137628285Y-58618380D01*
X137914000Y-58618380D02*
X137914000Y-57618380D01*
X137818761Y-57761238D01*
X137723523Y-57856476D01*
X137628285Y-57904095D01*
X117348095Y-68286380D02*
X117348095Y-69095904D01*
X117395714Y-69191142D01*
X117443333Y-69238761D01*
X117538571Y-69286380D01*
X117729047Y-69286380D01*
X117824285Y-69238761D01*
X117871904Y-69191142D01*
X117919523Y-69095904D01*
X117919523Y-68286380D01*
X118919523Y-69286380D02*
X118348095Y-69286380D01*
X118633809Y-69286380D02*
X118633809Y-68286380D01*
X118538571Y-68429238D01*
X118443333Y-68524476D01*
X118348095Y-68572095D01*
X126960333Y-102052380D02*
X126627000Y-101576190D01*
X126388904Y-102052380D02*
X126388904Y-101052380D01*
X126769857Y-101052380D01*
X126865095Y-101100000D01*
X126912714Y-101147619D01*
X126960333Y-101242857D01*
X126960333Y-101385714D01*
X126912714Y-101480952D01*
X126865095Y-101528571D01*
X126769857Y-101576190D01*
X126388904Y-101576190D01*
X127341285Y-101147619D02*
X127388904Y-101100000D01*
X127484142Y-101052380D01*
X127722238Y-101052380D01*
X127817476Y-101100000D01*
X127865095Y-101147619D01*
X127912714Y-101242857D01*
X127912714Y-101338095D01*
X127865095Y-101480952D01*
X127293666Y-102052380D01*
X127912714Y-102052380D01*
X126960333Y-99639380D02*
X126627000Y-99163190D01*
X126388904Y-99639380D02*
X126388904Y-98639380D01*
X126769857Y-98639380D01*
X126865095Y-98687000D01*
X126912714Y-98734619D01*
X126960333Y-98829857D01*
X126960333Y-98972714D01*
X126912714Y-99067952D01*
X126865095Y-99115571D01*
X126769857Y-99163190D01*
X126388904Y-99163190D01*
X127912714Y-99639380D02*
X127341285Y-99639380D01*
X127627000Y-99639380D02*
X127627000Y-98639380D01*
X127531761Y-98782238D01*
X127436523Y-98877476D01*
X127341285Y-98925095D01*
X136699666Y-104608380D02*
X136699666Y-105322666D01*
X136652047Y-105465523D01*
X136556809Y-105560761D01*
X136413952Y-105608380D01*
X136318714Y-105608380D01*
X137080619Y-104608380D02*
X137699666Y-104608380D01*
X137366333Y-104989333D01*
X137509190Y-104989333D01*
X137604428Y-105036952D01*
X137652047Y-105084571D01*
X137699666Y-105179809D01*
X137699666Y-105417904D01*
X137652047Y-105513142D01*
X137604428Y-105560761D01*
X137509190Y-105608380D01*
X137223476Y-105608380D01*
X137128238Y-105560761D01*
X137080619Y-105513142D01*
X136826666Y-103211380D02*
X136826666Y-103925666D01*
X136779047Y-104068523D01*
X136683809Y-104163761D01*
X136540952Y-104211380D01*
X136445714Y-104211380D01*
X137255238Y-103306619D02*
X137302857Y-103259000D01*
X137398095Y-103211380D01*
X137636190Y-103211380D01*
X137731428Y-103259000D01*
X137779047Y-103306619D01*
X137826666Y-103401857D01*
X137826666Y-103497095D01*
X137779047Y-103639952D01*
X137207619Y-104211380D01*
X137826666Y-104211380D01*
X136445666Y-54443380D02*
X136445666Y-55157666D01*
X136398047Y-55300523D01*
X136302809Y-55395761D01*
X136159952Y-55443380D01*
X136064714Y-55443380D01*
X137445666Y-55443380D02*
X136874238Y-55443380D01*
X137159952Y-55443380D02*
X137159952Y-54443380D01*
X137064714Y-54586238D01*
X136969476Y-54681476D01*
X136874238Y-54729095D01*
X129627333Y-106148142D02*
X129579714Y-106195761D01*
X129436857Y-106243380D01*
X129341619Y-106243380D01*
X129198761Y-106195761D01*
X129103523Y-106100523D01*
X129055904Y-106005285D01*
X129008285Y-105814809D01*
X129008285Y-105671952D01*
X129055904Y-105481476D01*
X129103523Y-105386238D01*
X129198761Y-105291000D01*
X129341619Y-105243380D01*
X129436857Y-105243380D01*
X129579714Y-105291000D01*
X129627333Y-105338619D01*
X129960666Y-105243380D02*
X130627333Y-105243380D01*
X130198761Y-106243380D01*
X127214333Y-71223142D02*
X127166714Y-71270761D01*
X127023857Y-71318380D01*
X126928619Y-71318380D01*
X126785761Y-71270761D01*
X126690523Y-71175523D01*
X126642904Y-71080285D01*
X126595285Y-70889809D01*
X126595285Y-70746952D01*
X126642904Y-70556476D01*
X126690523Y-70461238D01*
X126785761Y-70366000D01*
X126928619Y-70318380D01*
X127023857Y-70318380D01*
X127166714Y-70366000D01*
X127214333Y-70413619D01*
X128071476Y-70651714D02*
X128071476Y-71318380D01*
X127833380Y-70270761D02*
X127595285Y-70985047D01*
X128214333Y-70985047D01*
X137374333Y-61317142D02*
X137326714Y-61364761D01*
X137183857Y-61412380D01*
X137088619Y-61412380D01*
X136945761Y-61364761D01*
X136850523Y-61269523D01*
X136802904Y-61174285D01*
X136755285Y-60983809D01*
X136755285Y-60840952D01*
X136802904Y-60650476D01*
X136850523Y-60555238D01*
X136945761Y-60460000D01*
X137088619Y-60412380D01*
X137183857Y-60412380D01*
X137326714Y-60460000D01*
X137374333Y-60507619D01*
X137755285Y-60507619D02*
X137802904Y-60460000D01*
X137898142Y-60412380D01*
X138136238Y-60412380D01*
X138231476Y-60460000D01*
X138279095Y-60507619D01*
X138326714Y-60602857D01*
X138326714Y-60698095D01*
X138279095Y-60840952D01*
X137707666Y-61412380D01*
X138326714Y-61412380D01*
X131405333Y-71985142D02*
X131357714Y-72032761D01*
X131214857Y-72080380D01*
X131119619Y-72080380D01*
X130976761Y-72032761D01*
X130881523Y-71937523D01*
X130833904Y-71842285D01*
X130786285Y-71651809D01*
X130786285Y-71508952D01*
X130833904Y-71318476D01*
X130881523Y-71223238D01*
X130976761Y-71128000D01*
X131119619Y-71080380D01*
X131214857Y-71080380D01*
X131357714Y-71128000D01*
X131405333Y-71175619D01*
X132357714Y-72080380D02*
X131786285Y-72080380D01*
X132072000Y-72080380D02*
X132072000Y-71080380D01*
X131976761Y-71223238D01*
X131881523Y-71318476D01*
X131786285Y-71366095D01*
X126412714Y-88431666D02*
X126888904Y-88431666D01*
X126317476Y-88717380D02*
X126650809Y-87717380D01*
X126984142Y-88717380D01*
X127841285Y-88717380D02*
X127269857Y-88717380D01*
X127555571Y-88717380D02*
X127555571Y-87717380D01*
X127460333Y-87860238D01*
X127365095Y-87955476D01*
X127269857Y-88003095D01*
M02*
